<?xml version="1.0" encoding="utf-8"?><svg width="46" height="46" fill="none" xmlns="http://www.w3.org/2000/svg" viewBox="0 0 46 46"><path d="M38.316 3.837a1.915 1.915 0 00-1.917 1.917v1.22a17.32 17.32 0 01-13.417 6.447h-11.5a5.756 5.756 0 00-5.75 5.75v3.833a5.756 5.756 0 005.75 5.75h.928L7.804 39.499a1.915 1.915 0 001.762 2.671h7.666a1.914 1.914 0 001.762-1.162l5.22-12.181A17.301 17.301 0 0136.4 35.2v1.22a1.917 1.917 0 103.833 0V5.754a1.914 1.914 0 00-1.916-1.917zM11.482 24.921a1.918 1.918 0 01-1.916-1.917V19.17a1.918 1.918 0 011.916-1.916H13.4v7.666h-1.917zm4.487 13.416h-3.496l4.106-9.583h3.497l-4.107 9.583zm20.43-8.583a21.183 21.183 0 00-13.417-4.834h-5.75v-7.666h5.75A21.184 21.184 0 0036.4 12.419v17.335z" fill="url(#bxpaint0_linear_1583_8673)"/><defs><linearGradient id="bxpaint0_linear_1583_8673" x1="22.982" y1="3.837" x2="22.982" y2="42.17" gradientUnits="userSpaceOnUse"><stop stop-color="#009E55"/><stop offset="1" stop-color="#34BA51"/></linearGradient></defs></svg>