<?xml version="1.0" encoding="utf-8"?><svg width="26" height="26" fill="none" xmlns="http://www.w3.org/2000/svg" viewBox="0 0 26 26"><path d="M11.416 20.485a3.76 3.76 0 01-5.316 0 3.76 3.76 0 010-5.316l3.127-3.127a3.76 3.76 0 015.316 0 .442.442 0 11-.625.625 2.858 2.858 0 00-4.065 0l-3.127 3.127a2.858 2.858 0 000 4.065 2.858 2.858 0 004.065 0l2.97-2.97a.441.441 0 11.626.625l-2.97 2.97zm5.942-5.942a3.76 3.76 0 01-5.316 0 .442.442 0 11.625-.625 2.858 2.858 0 004.065 0l3.127-3.127a2.858 2.858 0 000-4.065 2.858 2.858 0 00-4.065 0l-2.97 2.97a.443.443 0 11-.626-.625l2.97-2.97a3.76 3.76 0 015.317 0 3.76 3.76 0 010 5.315l-3.127 3.127z" fill="#009E55"/></svg>