<?xml version="1.0" encoding="utf-8"?><svg width="40" height="40" fill="none" xmlns="http://www.w3.org/2000/svg" viewBox="0 0 40 40"><path fill-rule="evenodd" clip-rule="evenodd" d="M6 5.167a2.5 2.5 0 00-2.5 2.5v18a2.5 2.5 0 002.5 2.5h7.5v3.666h-1.833a1.5 1.5 0 100 3h16.666a1.5 1.5 0 100-3H26.5v-3.666H34a2.5 2.5 0 002.5-2.5v-18a2.5 2.5 0 00-2.5-2.5H6zm19 20h8.5v-17h-27v17H25zm-1.5 3v3.666h-7v-3.666h7z" fill="url(#aspaint0_linear_1276_8400)"/><circle cx="20" cy="23" r="1" fill="#019E55"/><defs><linearGradient id="aspaint0_linear_1276_8400" x1="25" y1="26.667" x2="25" y2="33.333" gradientUnits="userSpaceOnUse"><stop stop-color="#009E55"/><stop offset="1" stop-color="#34BA51"/></linearGradient></defs></svg>