<?xml version="1.0" encoding="utf-8"?><svg width="40" height="40" fill="none" xmlns="http://www.w3.org/2000/svg" viewBox="0 0 40 40"><path fill-rule="evenodd" clip-rule="evenodd" d="M12 12v-2a6 6 0 016-6h4a6 6 0 016 6v2h4a4 4 0 014 4v7.14A45.903 45.903 0 0120 26a45.9 45.9 0 01-16-2.86V16a4 4 0 014-4h4zm4-2a2 2 0 012-2h4a2 2 0 012 2v2h-8v-2zm2 10a2 2 0 012-2h.02a2 2 0 010 4H20a2 2 0 01-2-2z" fill="url(#ampaint0_linear_1276_8403)"/><path d="M4 27.384V32a4 4 0 004 4h24a4 4 0 004-4v-4.616A49.95 49.95 0 0120 30a49.96 49.96 0 01-16-2.616z" fill="url(#ampaint1_linear_1276_8403)"/><defs><linearGradient id="ampaint0_linear_1276_8403" x1="20" y1="4" x2="20" y2="26" gradientUnits="userSpaceOnUse"><stop stop-color="#009E55"/><stop offset="1" stop-color="#34BA51"/></linearGradient><linearGradient id="ampaint1_linear_1276_8403" x1="20" y1="27.384" x2="20" y2="36" gradientUnits="userSpaceOnUse"><stop stop-color="#009E55"/><stop offset="1" stop-color="#34BA51"/></linearGradient></defs></svg>