<?xml version="1.0" encoding="utf-8"?><svg width="46" height="46" fill="none" xmlns="http://www.w3.org/2000/svg" viewBox="0 0 46 46"><path d="M33.62 9.66h-.59a4.144 4.144 0 00-4.13-3.932H16.277c-.276 0-.512.118-.708.314l-7.04 7.159a.921.921 0 00-.276.668v18.014a4.144 4.144 0 003.933 4.13v.59a4.13 4.13 0 004.13 4.13H33.62a4.13 4.13 0 004.13-4.13V13.79a4.13 4.13 0 00-4.13-4.13zm-6.489 14.75c0 .55-.433.983-.983.983H15.135a.974.974 0 01-.983-.983c0-.55.432-.983.983-.983h11.013c.55 0 .983.433.983.983zm0 4.72c0 .55-.433.983-.983.983H15.135a.974.974 0 01-.983-.983c0-.55.432-.983.983-.983h11.013c.55 0 .983.432.983.983zm-8.063-10.423c.55 0 .983.433.983.983 0 .551-.432.984-.983.984h-3.933a.974.974 0 01-.983-.984c0-.55.432-.983.983-.983h3.933zM11.281 13.2l4.05-4.13v3.54c0 .315-.275.59-.59.59h-3.46zm24.503 23.403c0 1.18-.983 2.163-2.163 2.163H16.315a2.182 2.182 0 01-2.163-2.163v-.59H28.9a4.13 4.13 0 004.13-4.13V11.627h.59c1.18 0 2.163.984 2.163 2.164v22.812z" fill="url(#avpaint0_linear_4960_20171)"/><defs><linearGradient id="avpaint0_linear_4960_20171" x1="23.001" y1="5.728" x2="23.001" y2="40.733" gradientUnits="userSpaceOnUse"><stop stop-color="#009E55"/><stop offset="1" stop-color="#34BA51"/></linearGradient></defs></svg>