<?xml version="1.0" encoding="utf-8"?><svg width="36" height="36" fill="none" xmlns="http://www.w3.org/2000/svg" viewBox="0 0 36 36"><path d="M31.5 31.5V10.125L21.375 0H9a4.5 4.5 0 00-4.5 4.5v27A4.5 4.5 0 009 36h18a4.5 4.5 0 004.5-4.5zM21.375 6.75a3.375 3.375 0 003.375 3.375h4.5V31.5A2.25 2.25 0 0127 33.75H9a2.25 2.25 0 01-2.25-2.25v-27A2.25 2.25 0 019 2.25h12.375v4.5z" fill="currentColor"/><path d="M10.357 31.696a1.822 1.822 0 01-.986-.945c-.438-.873-.292-1.746.18-2.48.446-.69 1.184-1.278 2.018-1.77a17.28 17.28 0 013.335-1.452 44.319 44.319 0 002.39-5.01 16.357 16.357 0 01-.968-2.914c-.194-.9-.268-1.791-.104-2.556.17-.797.617-1.512 1.463-1.852.432-.173.9-.27 1.355-.173a1.575 1.575 0 011.073.821c.198.369.27.801.285 1.21.016.424-.026.892-.105 1.382-.19 1.148-.608 2.552-1.17 4.037a24.64 24.64 0 002.205 3.793 12.941 12.941 0 013.001.113c.82.148 1.652.438 2.16 1.046.27.324.434.72.45 1.165.016.432-.105.86-.31 1.267-.178.377-.453.7-.797.936-.34.222-.742.33-1.147.31-.745-.031-1.472-.44-2.1-.938a12.852 12.852 0 01-2.05-2.137 26.221 26.221 0 00-4.492.913 25.431 25.431 0 01-2.295 3.398c-.657.787-1.37 1.476-2.086 1.77-.411.187-.878.21-1.305.066zm3.103-4.277c-.374.17-.72.35-1.033.535-.738.436-1.217.862-1.456 1.23-.212.327-.216.563-.09.813.022.05.045.081.059.099a.61.61 0 00.078-.027c.308-.126.799-.529 1.429-1.287.358-.439.696-.894 1.013-1.363zm3.69-2.993c.75-.175 1.509-.32 2.272-.434a26.414 26.414 0 01-1.148-1.93 46.695 46.695 0 01-1.125 2.362v.002zm5.503 1.013c.338.366.666.674.979.922.54.427.915.57 1.12.576a.241.241 0 00.158-.034.691.691 0 00.211-.281.981.981 0 00.133-.45.214.214 0 00-.059-.142c-.117-.14-.45-.342-1.165-.47a8.728 8.728 0 00-1.377-.12v-.002zm-4.477-7.889c.189-.61.34-1.233.45-1.863.07-.423.096-.772.085-1.046a1.38 1.38 0 00-.072-.446 1.165 1.165 0 00-.326.09c-.196.079-.356.239-.441.637-.09.432-.068 1.055.103 1.85.054.25.122.51.203.778h-.003z" fill="currentColor"/></svg>