<?xml version="1.0" encoding="utf-8"?><svg width="40" height="40" fill="none" xmlns="http://www.w3.org/2000/svg" viewBox="0 0 40 40"><path fill-rule="evenodd" clip-rule="evenodd" d="M22.732 20.125c-.973.63-2.01.958-3.071.958-4.044 0-7.187-4.595-7.187-8.543a7.193 7.193 0 017.187-7.187 7.193 7.193 0 017.187 7.187c0 1.906-.766 4.028-2.042 5.68a.317.317 0 01-.064.079c-.598.758-1.277 1.38-2.01 1.826zm.829 1.363c.478-.29.934-.646 1.368-1.05 5.812 2.135 9.987 7.679 10.055 14.212.016.048.016.104.016.16a.79.79 0 01-.798.797H5.128a.795.795 0 01-.798-.798c0-6.586 4.19-12.202 10.04-14.362 1.45 1.352 3.264 2.23 5.29 2.23 1.37 0 2.695-.408 3.9-1.19z" fill="url(#bupaint0_linear_1602_8614)"/><defs><linearGradient id="bupaint0_linear_1602_8614" x1="19.665" y1="5.353" x2="19.665" y2="35.607" gradientUnits="userSpaceOnUse"><stop stop-color="#009E55"/><stop offset="1" stop-color="#34BA51"/></linearGradient></defs></svg>