<?xml version="1.0" encoding="utf-8"?><svg width="40" height="40" fill="none" xmlns="http://www.w3.org/2000/svg" viewBox="0 0 40 40"><path d="M7.068 4a1.081 1.081 0 00-.754.3c-.2.193-.314.455-.314.73v26.808c-.001.274.111.538.312.733.2.194.472.303.756.302h8.295a11.354 11.354 0 01-1.455-5.557c0-6.452 5.453-11.737 12.11-11.737.7 0 1.381.07 2.049.183v-2.588h-8.403c-.585-.002-1.058-.461-1.06-1.028V4H7.068zm13.664.61v6.501h6.707l-6.707-6.5zm5.286 13.03c-5.501 0-9.982 4.344-9.982 9.676 0 5.333 4.48 9.684 9.982 9.684C31.519 37 36 32.649 36 27.316c0-5.332-4.48-9.675-9.982-9.675zm4.85 6.033h.01c.3.002.585.127.785.344a1.012 1.012 0 01-.163 1.519l-6.982 5.214a1.088 1.088 0 01-1.469-.16l-2.693-3.18a1.008 1.008 0 01-.173-1.02c.134-.346.448-.595.823-.656.376-.06.756.079.998.364l2.034 2.407 6.165-4.606a1.08 1.08 0 01.665-.226z" fill="url(#aupaint0_linear_1602_8623)"/><defs><linearGradient id="aupaint0_linear_1602_8623" x1="21" y1="4" x2="21" y2="37" gradientUnits="userSpaceOnUse"><stop stop-color="#009E55"/><stop offset="1" stop-color="#34BA51"/></linearGradient></defs></svg>