<?xml version="1.0" encoding="utf-8"?><svg width="26" height="26" fill="currentColor" xmlns="http://www.w3.org/2000/svg" viewBox="0 0 26 26"><path d="M10.247 6.488h0c.139-.366.35-.7.619-.983l-.619.983zm0 0a2.966 2.966 0 00-.191 1.137c-.004.38.067.757.211 1.109h0m-.02-2.246l.02 2.246m0 0c.145.355.36.677.634.945h0m-.634-.945l.634.945m0 0c.273.268.598.477.954.613h0m-.954-.613l.954.613m0 0c.351.134.725.195 1.1.179.37.006.739-.06 1.084-.198h0m-2.184.02l2.184-.02m0 0c.35-.139.67-.347.94-.612.27-.265.485-.582.633-.93h0m-1.573 1.542l1.573-1.543m0 0c.147-.347.225-.72.23-1.099a2.965 2.965 0 00-.81-2.126l-.362.344m.942 2.881l-.942-2.88m0 0l.362-.345a2.892 2.892 0 00-.951-.663m.589 1.007l-.59-1.007M12.95 4.61c-.39 0-.774.08-1.132.233m1.132-.233c.389 0 .774.08 1.132.233m-1.132-.233s0 0 0 0v.5-.5s0 0 0 0zm-1.132.233h2.264m-2.264 0c-.358.154-.682.38-.951.663l.95-.663zm1.138 8.032h-.004a5.222 5.222 0 01-3.7-1.567A5.405 5.405 0 017.706 7.54a5.48 5.48 0 011.54-3.8 5.295 5.295 0 013.707-1.614c.693 0 1.379.139 2.018.41l.195-.46-.195.46a5.23 5.23 0 011.71 1.173h0c.49.503.874 1.1 1.134 1.757.26.657.387 1.36.377 2.067h0v.014c.009.703-.121 1.401-.382 2.052l.464.186-.464-.186a5.268 5.268 0 01-1.135 1.738h0a5.165 5.165 0 01-1.708 1.151h0a5.093 5.093 0 01-2.012.387zm1.364 5.13l.59.586 3.269 3.239a1.163 1.163 0 01.334.822c0 .154-.03.305-.088.447h0c-.058.142-.142.27-.248.377l-.016.016-.014.017a1.009 1.009 0 01-.346.271h0a.988.988 0 01-.848 0h0a1.01 1.01 0 01-.347-.27l-.016-.02-.018-.018-3.27-3.241-.357-.353-.352.357-3.19 3.241h0l-.004.004a1.094 1.094 0 01-.818.333 1.398 1.398 0 01-.87-.348c-.1-.105-.18-.23-.237-.366h0a1.184 1.184 0 01.244-1.267l3.346-3.236.602-.583-.798-.253a15.965 15.965 0 01-3.314-1.486 1.266 1.266 0 01-.518-.756l-.486.116.486-.116a1.29 1.29 0 01.123-.917 1.198 1.198 0 01.762-.529h0c.157-.032.318-.03.474.003h0c.156.033.304.099.435.192l.015.01.015.01a7.903 7.903 0 004.13 1.167 7.903 7.903 0 004.13-1.167l.015-.01.014-.01c.131-.093.28-.159.436-.192h0c.155-.034.317-.035.473-.003h0a1.17 1.17 0 01.766.534c.16.273.215.598.151.911a1.27 1.27 0 01-.477.76 16.629 16.629 0 01-3.383 1.482l-.795.247z" stroke="#009E55"/></svg>