<?xml version="1.0" encoding="utf-8"?><svg width="224" height="75" fill="none" xmlns="http://www.w3.org/2000/svg" viewBox="0 0 224 75"><g clip-path="url(#beclip0_9727_2536)" fill-rule="evenodd" clip-rule="evenodd" fill="#009035"><path d="M151.968 14v46.683h-.993V14h.993zM36.803 32.024l1.581.184c-.102.992-.468 1.812-1.1 2.452-.63.643-1.458.963-2.486.966-.864-.003-1.567-.229-2.104-.685-.54-.455-.954-1.075-1.245-1.855-.29-.78-.435-1.64-.435-2.581 0-1.512.34-2.743 1.025-3.691.684-.948 1.626-1.423 2.82-1.423.94 0 1.722.303 2.346.911.623.606 1.016 1.472 1.179 2.602l-1.58.176c-.292-1.5-.936-2.246-1.93-2.246-.637 0-1.134.31-1.486.933-.353.623-.53 1.526-.53 2.708 0 1.204.189 2.11.568 2.723.378.613.88.92 1.505.92.5 0 .923-.205 1.276-.617.35-.412.549-.904.596-1.477zm6.502 3.448h-1.83v-8.393h-2.518v-1.534h6.864v1.534h-2.516v8.393zm5.439 0H47.04v-9.927h3.874c1.105 0 1.924.293 2.46.876.532.584.8 1.274.8 2.068 0 .909-.29 1.643-.867 2.204-.577.564-1.311.844-2.199.844h-2.364v3.935zm0-5.469h2.019c.525 0 .928-.136 1.204-.407.28-.273.417-.633.417-1.085 0-.407-.128-.754-.383-1.047-.258-.29-.722-.434-1.392-.434h-1.865v2.973zm10.468 5.623c-1.256-.003-2.236-.497-2.937-1.485-.698-.99-1.048-2.211-1.048-3.666 0-1.445.371-2.654 1.114-3.624.746-.973 1.728-1.46 2.947-1.46 1.23 0 2.204.487 2.916 1.46.715.97 1.072 2.187 1.072 3.646 0 1.532-.371 2.77-1.112 3.714-.743.943-1.726 1.412-2.952 1.415zm.015-1.443c.615 0 1.133-.265 1.56-.799.425-.534.638-1.5.638-2.902 0-1.139-.177-2.033-.527-2.678-.35-.648-.898-.97-1.636-.97-1.463 0-2.192 1.233-2.192 3.7 0 1.197.185 2.105.559 2.724.372.617.904.925 1.598.925zm7.52.388v.9h-1.705v-9.926h1.704v5.57c0 .452-.017.951-.047 1.5.305-.676.677-1.333 1.115-1.979l2.788-4.088v-1.003H72.3v9.927h-1.7V30.33c0-.894.015-1.5.043-1.82-.334.7-.707 1.356-1.124 1.971l-2.774 4.089zm-.112-11.945h.909c.082.64.487.96 1.214.96.703 0 1.096-.32 1.179-.96h.909a2.059 2.059 0 01-.611 1.415c-.384.385-.888.578-1.513.578-.596 0-1.088-.18-1.476-.546-.389-.362-.592-.846-.611-1.447zm8.158 12.846H73.31l3.004-9.927h2.163l2.987 9.927h-1.83l-2.392-8.261h-.097l-2.35 8.26zm13.844 0h-6.15v-9.927h6.088v1.477h-4.383v2.69h3.522v1.44h-3.522v2.778h4.445v1.542zm6.94-3.448l1.58.184c-.101.992-.468 1.812-1.1 2.452-.63.643-1.458.963-2.485.966-.864-.003-1.567-.229-2.104-.685-.54-.455-.954-1.075-1.245-1.855-.291-.78-.436-1.64-.436-2.581 0-1.512.341-2.743 1.025-3.691.684-.948 1.626-1.423 2.821-1.423.94 0 1.721.303 2.346.911.622.606 1.015 1.472 1.179 2.602l-1.581.176c-.291-1.5-.935-2.246-1.93-2.246-.636 0-1.133.31-1.486.933-.352.623-.53 1.526-.53 2.708 0 1.204.19 2.11.568 2.723.379.613.88.92 1.505.92.5 0 .924-.205 1.276-.617.35-.412.55-.904.597-1.477zm3.112 3.448v-9.927h5.927v1.44h-4.223v2.589h1.638c.826 0 1.482.074 1.962.226.481.149.874.469 1.181.96.308.49.462 1.068.462 1.738 0 .886-.265 1.604-.798 2.152-.53.549-1.309.822-2.329.822h-3.82zm1.704-1.542h1.908c1.067 0 1.602-.499 1.602-1.499 0-.412-.118-.755-.355-1.028-.234-.275-.71-.412-1.42-.412h-1.735v2.94zm14.324 1.542h-1.822l-.757-2.364h-3.641l-.741 2.364h-1.455l3.141-9.927h2.099l3.176 9.927zm-3.036-3.796l-1.38-4.43-1.38 4.43h2.76zm11.375 3.796h-1.704V31.16h-3.614v4.312h-1.705v-9.927h1.705v4.08h3.614v-4.08h1.704v9.927zm9.699 0h-1.908l-1.995-5.054-1.832 2.544v2.51h-1.704v-9.927h1.704v5.215c.218-.355.374-.6.471-.734l3.143-4.48h1.726l-2.246 3.263 2.641 6.663zM1.305 57.145h10.002l.034-.041a19.89 19.89 0 001.608-2.123l.036-.056h.005l.126-.201c.902-1.467 1.357-2.837 1.354-4.252 0-1.918-.591-3.88-1.587-6.52-1.255-3.326-2.538-8.334-2.538-13.874 0-1.092.396-5.34.408-7.355h-.01l-8.778 32-.055.202-.61 2.22h.005z"/><path d="M.834 54.736h20.159l-10.08-36.389-10.08 36.39zM0 55.374h21.826L10.92 16h-.013L0 55.374z"/><path d="M15.27 57.64h9.188L15.27 24.474v9.006l-.634-2.658V19.91h.027l10.628 38.37H14.636v-3.344l.634.01v2.696zM35.296 49.407l-1.755-5.878v5.878h-1.416V42.2h2.63l1.255 4.313 1.327-4.313h2.633v7.207h-1.697V43.53l-1.808 5.878h-1.169zm8.216-5.435c.81 0 1.443.265 1.899.796.453.53.68 1.194.68 1.992 0 .787-.236 1.443-.708 1.969-.471.524-1.098.787-1.881.787-.759 0-1.364-.26-1.82-.78-.453-.52-.68-1.187-.68-2.003 0-.565.103-1.046.308-1.44.205-.397.486-.716.844-.957.359-.243.81-.364 1.358-.364zM43.554 45c-.297 0-.523.115-.672.344-.151.23-.227.688-.227 1.372 0 .629.072 1.079.216 1.353.144.273.368.41.674.41.266 0 .48-.117.646-.349.164-.234.247-.68.247-1.335 0-.698-.072-1.172-.218-1.42a.72.72 0 00-.666-.375zm5.11 3.857v.551h-1.577V44.08h1.578v2.023c0 .356-.014.754-.043 1.192.264-.454.497-.82.695-1.097l1.034-1.437v-.68h1.577v5.326h-1.577v-1.876c0-.43.014-.872.043-1.324a5.863 5.863 0 01-.65 1.17l-1.08 1.48zm-.831-7.175h.832c.056.462.337.692.841.692.517 0 .803-.23.855-.691h.833c-.06.473-.24.844-.54 1.112-.302.267-.69.4-1.164.4-.447 0-.825-.124-1.133-.37-.306-.25-.483-.63-.524-1.142zm8.097 7.727V44.08h1.578v1.924h1.62V44.08h1.578v5.328h-1.578v-2.259h-1.62v2.258H55.93zm10.72 0h-1.524a3.744 3.744 0 01-.076-.838c-.266.38-.533.632-.798.758a2.107 2.107 0 01-.904.188c-.499 0-.9-.136-1.208-.406-.308-.272-.461-.634-.461-1.09 0-.334.09-.642.268-.923.18-.281.468-.503.866-.661.396-.16 1.12-.28 2.172-.357v-.306c0-.517-.257-.774-.774-.774-.551 0-.86.26-.922.778l-1.448-.137c.095-.605.382-1.034.86-1.288.48-.254 1.022-.38 1.627-.38.364 0 .704.042 1.025.126.32.085.57.211.75.38.18.17.301.348.364.535.063.19.096.515.096.984v2.414c0 .463.029.797.086.996zm-1.665-2.55c-1.102.107-1.653.439-1.653.992a.71.71 0 00.175.48c.115.136.28.202.495.202.28 0 .513-.115.7-.344.19-.228.283-.511.283-.848v-.483zm2.783 1.437l1.213-4.215h2.232l.985 4.215h.648v2.334h-.972l-.162-1.221h-3.458l-.162 1.22h-.973v-2.334h.649zm1.176 0h1.66L70 45.15h-.216l-.84 3.145zm9.253-1.297h-3.43a6.02 6.02 0 00-.006.248c0 .382.101.67.305.865.201.194.444.292.727.292.524 0 .84-.281.945-.843l1.427.106c-.398 1.234-1.205 1.85-2.422 1.85-.532 0-.984-.107-1.355-.32a2.528 2.528 0 01-.918-.928c-.241-.41-.362-.897-.362-1.466 0-.847.241-1.53.726-2.05.482-.52 1.104-.78 1.864-.78.686 0 1.273.242 1.763.722.491.481.736 1.25.736 2.304zm-3.436-.908h1.89c-.048-.727-.349-1.091-.9-1.091-.59 0-.92.364-.99 1.091zm9.779.096l1.9 3.221h-1.626l-1.338-2.312-.364.108v2.204h-1.578v-2.204l-.364-.108-1.374 2.313h-1.493l1.843-2.805-1.713-2.523h1.558l1.343 1.978.2.032v-2.01h1.578v2.01l.2-.032 1.341-1.978h1.55l-1.663 2.106zm2.298 3.221V44.08h1.578v1.924h1.62V44.08h1.578v5.328h-1.578v-2.259h-1.62v2.258h-1.578zm6.105 0V44.08h1.578v1.891h1.219c.645 0 1.12.162 1.425.488.304.324.457.735.457 1.23 0 .587-.17 1.02-.508 1.299-.34.28-.8.42-1.378.42h-2.793zm1.578-1.058h.934c.26 0 .443-.05.553-.152.11-.099.166-.277.166-.535 0-.457-.24-.686-.719-.686h-.934v1.373zm3.75 1.059V44.08h1.577v5.328H98.27zm4.485-.552v.551h-1.577V44.08h1.577v2.023c0 .356-.014.754-.043 1.192.265-.454.497-.82.695-1.097l1.034-1.437v-.68h1.578v5.326h-1.578v-1.876c0-.43.015-.872.043-1.324a5.853 5.853 0 01-.65 1.17l-1.079 1.48zm-.832-7.175h.832c.056.462.337.692.842.692.516 0 .803-.23.855-.691h.832c-.059.473-.239.844-.54 1.112-.301.267-.69.4-1.164.4-.446 0-.825-.124-1.132-.37-.307-.25-.483-.63-.525-1.142zm11.026.044h1.556a1.23 1.23 0 01-.229.652 1.322 1.322 0 01-.538.41c-.227.097-.596.2-1.104.306-.461.1-.787.247-.978.443-.191.197-.319.497-.382.9.341-.192.576-.309.704-.354.128-.045.33-.066.604-.066.724 0 1.314.239 1.77.716.456.48.683 1.13.683 1.953 0 .86-.24 1.546-.717 2.06-.479.513-1.124.77-1.936.77-.566 0-1.045-.118-1.437-.356a2.28 2.28 0 01-.892-.994c-.202-.425-.303-1.009-.303-1.75 0-.643.058-1.22.175-1.728.115-.508.303-.944.564-1.309.259-.364.52-.616.78-.758a4.26 4.26 0 011.012-.368c.274-.07.45-.135.526-.194.077-.061.124-.171.142-.333zm-.584 3.35c-.333 0-.587.124-.763.374-.175.25-.263.695-.263 1.333 0 .623.086 1.057.261 1.304.173.246.429.37.765.37.33 0 .58-.122.75-.367.171-.245.255-.68.255-1.307 0-.634-.084-1.077-.255-1.33-.17-.252-.42-.378-.75-.378zm8.333 4.332h-1.523a3.713 3.713 0 01-.076-.837c-.266.38-.533.632-.798.758a2.104 2.104 0 01-.904.188c-.499 0-.9-.136-1.208-.406-.308-.272-.461-.634-.461-1.09 0-.334.09-.642.268-.923.18-.281.468-.503.866-.661.397-.16 1.121-.28 2.172-.357v-.306c0-.517-.257-.774-.774-.774-.551 0-.859.26-.922.778l-1.448-.137c.095-.605.382-1.034.861-1.288s1.021-.38 1.626-.38a4 4 0 011.025.126c.32.085.571.211.751.38.18.17.3.348.364.535.063.19.095.515.095.984v2.414c0 .463.029.797.086.996zm-1.664-2.55c-1.102.108-1.653.44-1.653.993a.71.71 0 00.175.48c.115.136.281.202.495.202a.874.874 0 00.701-.344c.189-.228.282-.511.282-.848v-.483zm2.869 2.55V44.08h1.578v1.924h1.621V44.08h1.577v5.328h-1.577v-2.259h-1.621v2.258h-1.578zm9.497-3.506l1.838 3.506h-1.638l-1.249-2.38-.797.852v1.529h-1.578V44.08h1.578v1.331c0 .215-.007.528-.022.939.124-.179.274-.363.452-.55l1.619-1.72h1.441l-1.644 1.821zM188.941 32.568c2.737.213 6.244.883 7.462 2.566 1.219 1.683 1.657 3.675 1.313 5.976-.173 1.16-.539 2.302-1.06 3.412h-5.137c.279-.806.48-1.616.602-2.431.337-2.259.049-4.187-.862-5.785-.912-1.597-2.625-2.396-5.139-2.396-1.193 0-2.299.128-3.317.383-.134.043-.225-.064-.272-.32-.047-.255.018-.404.195-.447 3.536-.852 6.11-2.045 7.724-3.579 1.614-1.534 2.615-3.6 3.003-6.2.324-2.173.092-3.898-.697-5.177-.789-1.278-2.207-1.917-4.252-1.917-1.875 0-3.543.618-5.006 1.854-1.463 1.235-2.757 3.195-3.882 5.88-.049.042-.137.064-.265.064-.384 0-.541-.086-.473-.256l3.758-9.332c.098-.085.189-.128.274-.128.128 0 .251.032.37.096.118.064.152.118.103.16-.136.341-.213.575-.232.703-.108.725.2 1.087.924 1.087.469 0 1.133-.17 1.994-.512a26.335 26.335 0 012.465-.67c.704-.15 1.46-.224 2.27-.224 2.301 0 4.005.713 5.113 2.14 1.108 1.428 1.512 3.143 1.213 5.146-.305 2.045-1.191 3.984-2.657 5.816-1.467 1.832-3.311 3.196-5.532 4.09zM209.05 41.646c-2.595 0-4.815-.604-6.661-1.812-1.846-1.208-3.144-2.874-3.895-4.999-.75-2.125-.865-4.53-.344-7.213.512-2.64 1.549-4.988 3.112-7.046a16.547 16.547 0 015.802-4.831c2.306-1.163 4.779-1.745 7.418-1.745 2.595 0 4.783.593 6.566 1.778 1.783 1.185 3.041 2.83 3.774 4.932.732 2.103.843 4.474.33 7.113-.512 2.64-1.542 5.01-3.091 7.113-1.549 2.102-3.456 3.746-5.721 4.932-2.266 1.185-4.696 1.778-7.29 1.778zm.894-.805c2.863 0 5.234-1.096 7.113-3.288 1.879-2.192 3.184-5.167 3.913-8.925.868-4.474.571-7.895-.893-10.267-1.463-2.37-3.626-3.556-6.489-3.556-2.819 0-5.243 1.14-7.274 3.422-2.031 2.282-3.398 5.234-4.101 8.858-.504 2.594-.535 4.943-.093 7.045.442 2.103 1.331 3.747 2.667 4.932 1.335 1.186 3.054 1.779 5.157 1.779zM193.284 46.851c.013-.029-.072.156-.057.13.289-.509.835-.849 1.393-.849h1.849c-.251.206-.468.394-.651.565a4.172 4.172 0 00-.53.616c-.172.24-.349.537-.531.89-.183.355-.4.794-.651 1.319-.251.48-.496.976-.736 1.49-.24.513-.468 1.015-.685 1.506-.217.49-.405.947-.565 1.37-.16.422-.262.782-.308 1.078-.16.731-.154 1.25.017 1.558.171.309.383.474.634.497.411 0 .827-.183 1.249-.548a7.364 7.364 0 001.216-1.387 17.65 17.65 0 001.113-1.849c.354-.673.679-1.318.976-1.934.137-.297.291-.406.462-.326.171.08.177.291.017.634-.274.593-.593 1.25-.959 1.969-.365.719-.776 1.398-1.232 2.037a7.863 7.863 0 01-1.507 1.61c-.548.433-1.13.65-1.746.65-.388 0-.731-.097-1.027-.291-.297-.194-.52-.48-.668-.856-.148-.377-.223-.84-.223-1.387 0-.548.114-1.164.343-1.849.16-.502.353-1.039.582-1.61.228-.57.473-1.146.736-1.728.262-.583.525-1.159.787-1.73.263-.57.496-1.096.702-1.575zm-23.12 8.703c0 .367-.111.707-.302.99 3.421 2.408 13.425 3.248 20.101-7.21.341-.535.491-1.096.719-1.541.228-.445.468-.782.719-1.01a2.14 2.14 0 01.548-.411c.183-.091.399-.154.651-.188.251-.035.542-.052.873-.052h1.25c.535 0-1.299.837-1.589.87-.69.076-1.149.892-1.49 1.57-8.561 17.02-25.335 12.552-25.018 7.143a1.708 1.708 0 01-.007-.16c0-2.726 3.545-2.182 3.545 0zm35.824-4.012c-.32.685-.662 1.41-1.027 2.175a11.746 11.746 0 01-1.302 2.123 6.467 6.467 0 01-1.763 1.592c-.673.41-1.489.616-2.448.616-.868 0-1.627-.268-2.277-.805-.651-.536-.988-1.352-1.01-2.448 0-.502.062-1.038.188-1.61.126-.57.308-1.135.548-1.694.24-.56.519-1.102.839-1.627.319-.525.673-1.015 1.061-1.472a10.23 10.23 0 011.438-1.37 6.774 6.774 0 011.575-.941 3.989 3.989 0 011.524-.326c.491 0 .93.137 1.318.411.32.252.508.571.566.96.057.387-.006.815-.189 1.283-.182.468-.468.942-.856 1.421-.388.48-.856.925-1.404 1.336-.274.205-.599.4-.976.582-.376.182-.77.342-1.181.479a11.42 11.42 0 01-1.164.325c-.365.08-.662.12-.89.12-.137.32-.257.742-.36 1.267a5.905 5.905 0 00-.103 1.541c.035.502.172.942.411 1.318.24.377.645.565 1.216.565.753 0 1.432-.222 2.037-.667a7.85 7.85 0 001.609-1.593c.469-.616.868-1.255 1.199-1.917.331-.662.599-1.221.805-1.678a.885.885 0 01.256-.36c.103-.08.194-.12.274-.12.08 0 .137.04.172.12.034.08.005.212-.086.394zm-3.561-.993a5.885 5.885 0 001.147-1.3c.308-.48.519-.925.633-1.336.115-.411.137-.754.069-1.028-.069-.273-.24-.405-.514-.393-.274.011-.65.194-1.13.548-.479.353-1.073.953-1.78 1.797a13.398 13.398 0 00-1.25 1.78c-.377.64-.645 1.12-.805 1.439.16 0 .377-.029.651-.086a6.66 6.66 0 00.924-.274 7.644 7.644 0 002.055-1.147zm20.887 1.062a70.53 70.53 0 01-.942 1.883c-.376.73-.804 1.432-1.284 2.106a8.92 8.92 0 01-1.592 1.729c-.582.48-1.193.72-1.832.72a2.84 2.84 0 01-.959-.172 1.66 1.66 0 01-.804-.634c-.217-.308-.348-.719-.394-1.232-.046-.514.057-1.17.308-1.97.137-.456.365-.975.685-1.557a47.79 47.79 0 011.198-2.038c.206-.342.32-.639.343-.89.023-.25-.063-.4-.257-.445-.194-.045-.497.046-.907.274-.411.228-.948.65-1.61 1.267-.365.343-.804.816-1.318 1.421a24.41 24.41 0 00-2.774 4.04c-.376.697-.622 1.296-.736 1.798-.388 0-.69-.188-.907-.565-.217-.377-.28-.816-.188-1.318a7.716 7.716 0 01.582-2.037c.273-.605.559-1.227.856-1.867.274-.57.525-1.13.753-1.678.228-.547.337-.947.325-1.198-.011-.251-.199-.291-.565-.12-.365.172-.993.68-1.883 1.524-.594.525-1.284 1.301-2.072 2.328-.787 1.028-1.672 2.477-2.653 4.349-.114.251-.263.405-.445.462-.183.057-.468.086-.856.086a7.093 7.093 0 01-.617.034.98.98 0 00-.513.171 150.777 150.777 0 002.311-4.828 75.14 75.14 0 012.345-4.69c.434-.822.811-1.393 1.13-1.713.32-.32.754-.468 1.302-.445.228.023.462.063.701.12.24.057.486.063.737.017-.251.137-.554.434-.908.89-.353.457-.719.993-1.095 1.61a42.303 42.303 0 00-1.13 1.968 45.85 45.85 0 00-1.01 1.97c.342-.434.77-.942 1.284-1.524a16.518 16.518 0 011.558-1.558c.41-.366.85-.76 1.318-1.182a18.62 18.62 0 011.37-1.13 7.106 7.106 0 011.266-.77c.4-.183.748-.228 1.045-.137.319.114.525.308.616.582.091.274.057.582-.103.925-.319.73-.713 1.5-1.181 2.31-.468.811-.907 1.639-1.318 2.483.342-.433.77-.941 1.284-1.523a16.638 16.638 0 011.558-1.558 16.83 16.83 0 011.523-1.182 18.512 18.512 0 011.832-1.13 11.242 11.242 0 011.747-.77c.548-.183.959-.228 1.232-.137a115.765 115.765 0 00-1.883 3.527c-.251.48-.491.97-.719 1.472-.228.502-.445.987-.651 1.455a21.28 21.28 0 00-.53 1.319c-.149.41-.257.764-.326 1.061-.114.708-.102 1.17.035 1.387.137.217.319.325.548.325.433 0 .89-.234 1.369-.702.48-.468.936-1.021 1.37-1.66a18.05 18.05 0 001.164-1.97c.342-.673.605-1.203.788-1.591.137-.297.291-.406.462-.326.171.08.177.291.017.634zm-1.198-8.903a7.006 7.006 0 01-.668.839 4.969 4.969 0 01-.908.77 4.608 4.608 0 01-1.147.548 3.761 3.761 0 01-1.352.171 6.215 6.215 0 01-1.318-.205 39.248 39.248 0 01-1.25-.36 24.96 24.96 0 00-1.233-.342 6.572 6.572 0 00-1.233-.188c-.525-.046-.964.028-1.318.222a2.58 2.58 0 00-.839.702c-.023.046-.091.074-.205.086a1.724 1.724 0 01-.343 0 2.147 2.147 0 01-.308-.051c-.091-.023-.137-.058-.137-.103.388-.502.93-.999 1.627-1.49.696-.49 1.523-.713 2.482-.667.434.022.862.08 1.284.17.422.092.845.2 1.267.326.422.126.833.24 1.233.342.399.103.804.166 1.215.189.571.045 1.039-.029 1.404-.223s.674-.45.925-.77c0-.023.051-.04.154-.051.102-.012.205-.018.308-.018.103 0 .194.012.274.035.08.022.108.045.086.068z"/></g><defs><clipPath id="beclip0_9727_2536"><path fill="#fff" d="M0 0h224v75H0z"/></clipPath></defs></svg>