<?xml version="1.0" encoding="utf-8"?><svg width="40" height="40" fill="none" xmlns="http://www.w3.org/2000/svg" viewBox="0 0 40 40"><path fill-rule="evenodd" clip-rule="evenodd" d="M11.428 30.23l9.267-8.421h12.521c-.678 6.606-6.26 11.758-13.045 11.758a13.066 13.066 0 01-8.743-3.338zm10.1-24.25v13.115h13.115c.75 0 1.357.608 1.357 1.357 0 8.742-7.087 15.829-15.83 15.829a15.793 15.793 0 01-11.714-5.184 15.776 15.776 0 01-4.114-10.645c0-8.742 7.087-15.828 15.829-15.828.749 0 1.356.608 1.356 1.357z" fill="url(#bkpaint0_linear_2781_12935)"/><path fill-rule="evenodd" clip-rule="evenodd" d="M28.755 7.337c-.75 0-1.357.608-1.357 1.357v7.236a1.357 1.357 0 002.714 0V8.694c0-.75-.608-1.357-1.357-1.357z" fill="url(#bkpaint1_linear_2781_12935)"/><path fill-rule="evenodd" clip-rule="evenodd" d="M24.234 11.86c-.75 0-1.357.607-1.357 1.356v2.714a1.357 1.357 0 002.713 0v-2.714c0-.749-.607-1.356-1.356-1.356z" fill="url(#bkpaint2_linear_2781_12935)"/><path fill-rule="evenodd" clip-rule="evenodd" d="M33.279 3.72c-.75 0-1.357.607-1.357 1.356V15.93a1.357 1.357 0 002.713 0V5.076c0-.75-.607-1.357-1.356-1.357z" fill="url(#bkpaint3_linear_2781_12935)"/><defs><linearGradient id="bkpaint0_linear_2781_12935" x1="20.171" y1="4.624" x2="20.171" y2="36.281" gradientUnits="userSpaceOnUse"><stop stop-color="#009E55"/><stop offset="1" stop-color="#34BA51"/></linearGradient><linearGradient id="bkpaint1_linear_2781_12935" x1="28.755" y1="7.337" x2="28.755" y2="17.287" gradientUnits="userSpaceOnUse"><stop stop-color="#009E55"/><stop offset="1" stop-color="#34BA51"/></linearGradient><linearGradient id="bkpaint2_linear_2781_12935" x1="24.234" y1="11.86" x2="24.234" y2="17.287" gradientUnits="userSpaceOnUse"><stop stop-color="#009E55"/><stop offset="1" stop-color="#34BA51"/></linearGradient><linearGradient id="bkpaint3_linear_2781_12935" x1="33.279" y1="3.719" x2="33.279" y2="17.287" gradientUnits="userSpaceOnUse"><stop stop-color="#009E55"/><stop offset="1" stop-color="#34BA51"/></linearGradient></defs></svg>