<?xml version="1.0" encoding="utf-8"?><svg width="36" height="36" fill="none" xmlns="http://www.w3.org/2000/svg" viewBox="0 0 36 36"><path d="M31.5 31.5V10.125L21.375 0H9a4.5 4.5 0 00-4.5 4.5v27A4.5 4.5 0 009 36h18a4.5 4.5 0 004.5-4.5zM21.375 6.75a3.375 3.375 0 003.375 3.375h4.5V31.5A2.25 2.25 0 0127 33.75H9a2.25 2.25 0 01-2.25-2.25v-27A2.25 2.25 0 019 2.25h12.375v4.5z" fill="#009E55"/><path d="M10.906 19.453l1.125 1.996h.054l1.138-1.996H15.3l-2.049 3.429 2.13 3.429h-2.13l-1.165-2.036h-.054l-1.165 2.036H8.75l2.103-3.429-2.036-3.429h2.09zM16.196 26.31v-6.857h1.862v5.358h2.772v1.5h-4.634zM25.374 21.596a.723.723 0 00-.252-.522c-.147-.125-.371-.188-.672-.188-.192 0-.35.024-.473.07a.57.57 0 00-.268.185.456.456 0 00-.09.268.44.44 0 00.044.224.542.542 0 00.167.178c.076.05.173.098.291.14.119.043.26.08.422.114l.563.12c.38.08.704.187.974.319.27.131.491.287.663.465.172.176.298.375.379.596.082.221.125.462.127.723-.002.451-.115.833-.338 1.145-.224.313-.543.55-.958.714-.413.163-.91.244-1.49.244-.596 0-1.116-.088-1.56-.264a2.176 2.176 0 01-1.032-.814c-.243-.368-.366-.84-.368-1.413h1.768c.011.21.063.386.157.529a.876.876 0 00.395.325c.172.073.377.11.613.11.199 0 .365-.024.499-.073a.674.674 0 00.305-.205.483.483 0 00.107-.298.424.424 0 00-.104-.274.805.805 0 00-.321-.215 3.419 3.419 0 00-.606-.18l-.683-.148c-.608-.131-1.086-.351-1.437-.66-.348-.31-.521-.733-.519-1.268a1.887 1.887 0 01.348-1.142 2.33 2.33 0 01.981-.767c.42-.183.901-.274 1.444-.274.553 0 1.032.092 1.436.277.404.186.715.447.934.784.221.335.333.727.335 1.175h-1.781z" fill="#009E55"/></svg>