<?xml version="1.0" encoding="utf-8"?><svg width="46" height="46" fill="none" xmlns="http://www.w3.org/2000/svg" viewBox="0 0 46 46"><path d="M18.209 20.125h4.792a1.917 1.917 0 000-3.833h-1.917v-.959a1.917 1.917 0 10-3.833 0v1.054a4.791 4.791 0 00.958 9.488h1.917a.958.958 0 110 1.917h-4.792a1.917 1.917 0 000 3.833h1.917v.958a1.917 1.917 0 003.833 0V31.53a4.792 4.792 0 00-.958-9.487h-1.917a.958.958 0 110-1.917zM40.251 23H34.5V5.75a1.917 1.917 0 00-2.875-1.668l-5.75 3.297-5.75-3.297a1.917 1.917 0 00-1.917 0l-5.75 3.297-5.75-3.297A1.917 1.917 0 003.834 5.75v30.667a5.75 5.75 0 005.75 5.75h26.833a5.75 5.75 0 005.75-5.75v-11.5A1.917 1.917 0 0040.251 23zM9.584 38.333a1.916 1.916 0 01-1.917-1.916V9.066l3.834 2.185a2.07 2.07 0 001.916 0l5.75-3.297 5.75 3.297a2.07 2.07 0 001.917 0l3.833-2.185v27.35c.005.655.122 1.303.345 1.917H9.584zm28.75-1.916a1.916 1.916 0 11-3.833 0v-9.584h3.833v9.584z" fill="url(#awpaint0_linear_1583_8670)"/><defs><linearGradient id="awpaint0_linear_1583_8670" x1="23.001" y1="3.826" x2="23.001" y2="42.167" gradientUnits="userSpaceOnUse"><stop stop-color="#009E55"/><stop offset="1" stop-color="#34BA51"/></linearGradient></defs></svg>