<?xml version="1.0" encoding="utf-8"?><svg width="46" height="46" fill="none" xmlns="http://www.w3.org/2000/svg" viewBox="0 0 46 46"><path fill-rule="evenodd" clip-rule="evenodd" d="M30.207 11.369l-17.679 8.564c-.89.424-2.035-.043-2.331-1.018-.212-.805.212-1.653.975-2.034l17.594-8.565-.806-1.653c-.55-1.102.467-2.374 1.696-2.035L34.83 6.07a1.47 1.47 0 01.975 1.993l-2.12 4.918c-.509 1.145-2.12 1.187-2.671.042l-.806-1.653zm0 5.257h6.487c.466 0 .848.424.848.89V40.58a.85.85 0 01-.848.848h-6.487a.85.85 0 01-.848-.848V17.474a.85.85 0 01.848-.848zm-3.985 4.494h-6.487a.85.85 0 00-.847.848V40.58a.85.85 0 00.847.848h6.487a.85.85 0 00.848-.848V22.01c.042-.508-.382-.89-.848-.89zm-1.5 1.5h-4.334v17.308h5.182V22.62h-.848zM9.306 25.614h6.487a.85.85 0 01.848.848V40.58a.85.85 0 01-.848.848H9.306a.85.85 0 01-.848-.848V26.462a.85.85 0 01.848-.848z" fill="url(#aypaint0_linear_4960_20178)"/><defs><linearGradient id="aypaint0_linear_4960_20178" x1="23" y1="4.572" x2="23" y2="41.428" gradientUnits="userSpaceOnUse"><stop stop-color="#009E55"/><stop offset="1" stop-color="#34BA51"/></linearGradient></defs></svg>