<?xml version="1.0" encoding="utf-8"?><svg width="40" height="40" fill="none" xmlns="http://www.w3.org/2000/svg" viewBox="0 0 40 40"><path fill-rule="evenodd" clip-rule="evenodd" d="M14.552 4.125a1.5 1.5 0 01-.344 2.094 2.5 2.5 0 00-1.042 2.146 2.5 2.5 0 001.042 2.083 1.5 1.5 0 11-1.75 2.437 5.5 5.5 0 01-2.292-4.552 5.5 5.5 0 012.293-4.552 1.5 1.5 0 012.093.344z" fill="url(#aqpaint0_linear_1419_8499)"/><path fill-rule="evenodd" clip-rule="evenodd" d="M21.219 4.125a1.5 1.5 0 01-.344 2.094 2.5 2.5 0 00-1.042 2.146 2.5 2.5 0 001.042 2.083 1.5 1.5 0 11-1.75 2.437 5.5 5.5 0 01-2.292-4.552 5.5 5.5 0 012.292-4.552 1.5 1.5 0 012.094.344z" fill="url(#aqpaint1_linear_1419_8499)"/><path fill-rule="evenodd" clip-rule="evenodd" d="M5 16.667h23.333V25c0 5.523-4.477 10-10 10H15C9.477 35 5 30.523 5 25v-8.333z" fill="url(#aqpaint2_linear_1419_8499)"/><path fill-rule="evenodd" clip-rule="evenodd" d="M3.5 16.667a1.5 1.5 0 011.5-1.5h23.333a1.5 1.5 0 011.5 1.5V25c0 6.351-5.148 11.5-11.5 11.5H15C8.649 36.5 3.5 31.351 3.5 25v-8.333zm3 1.5V25a8.5 8.5 0 008.5 8.5h3.333a8.5 8.5 0 008.5-8.5v-6.833H6.5z" fill="url(#aqpaint3_linear_1419_8499)"/><path fill-rule="evenodd" clip-rule="evenodd" d="M27.83 17.204a6.5 6.5 0 11-.546 12.036 1.5 1.5 0 111.252-2.726 3.5 3.5 0 10.294-6.481 1.5 1.5 0 11-1-2.829z" fill="url(#aqpaint4_linear_1419_8499)"/><defs><linearGradient id="aqpaint0_linear_1419_8499" x1="12.499" y1="5" x2="12.499" y2="11.667" gradientUnits="userSpaceOnUse"><stop stop-color="#009E55"/><stop offset="1" stop-color="#34BA51"/></linearGradient><linearGradient id="aqpaint1_linear_1419_8499" x1="19.166" y1="5" x2="19.166" y2="11.667" gradientUnits="userSpaceOnUse"><stop stop-color="#009E55"/><stop offset="1" stop-color="#34BA51"/></linearGradient><linearGradient id="aqpaint2_linear_1419_8499" x1="16.667" y1="16.667" x2="16.667" y2="35" gradientUnits="userSpaceOnUse"><stop stop-color="#009E55"/><stop offset="1" stop-color="#34BA51"/></linearGradient><linearGradient id="aqpaint3_linear_1419_8499" x1="16.667" y1="16.667" x2="16.667" y2="35" gradientUnits="userSpaceOnUse"><stop stop-color="#009E55"/><stop offset="1" stop-color="#34BA51"/></linearGradient><linearGradient id="aqpaint4_linear_1419_8499" x1="31.453" y1="18.332" x2="31.453" y2="28.333" gradientUnits="userSpaceOnUse"><stop stop-color="#009E55"/><stop offset="1" stop-color="#34BA51"/></linearGradient></defs></svg>