<?xml version="1.0" encoding="utf-8"?><svg width="40" height="40" fill="none" xmlns="http://www.w3.org/2000/svg" viewBox="0 0 40 40"><path fill-rule="evenodd" clip-rule="evenodd" d="M25.592 13.695a5.092 5.092 0 01-1.294-1.187.36.36 0 00-.043-.05c-.831-1.073-1.329-2.459-1.329-3.717A4.745 4.745 0 0127.667 4c2.609 0 4.727 2.126 4.727 4.741 0 2.588-2.068 5.601-4.727 5.601-.718 0-1.414-.22-2.075-.647zm-6.455 8.572c.426-.259.832-.575 1.22-.935 5.178 1.902 8.898 6.842 8.96 12.664a.463.463 0 01.013.142c0 .398-.312.711-.71.711H2.71A.708.708 0 012 34.14c0-5.87 3.733-10.874 8.947-12.8 1.293 1.205 2.908 1.988 4.714 1.988 1.22 0 2.401-.364 3.476-1.06zm12.634-8.446zm0 0c3.4 1.563 5.77 4.995 5.77 8.973 0 .39-.32.71-.712.71l-10.527.001a15.04 15.04 0 00-4.925-3.29l.018-.022.023-.03c1.297-1.706 2.07-3.895 2.07-5.87 0-.1-.006-.198-.013-.297l-.009-.131a.758.758 0 00.04-.02.674.674 0 01.045-.024c.388.421.822.788 1.27 1.07.9.579 1.857.873 2.846.873 1.612 0 3.032-.782 4.104-1.943zm-13.373 7.232c-.867.562-1.791.853-2.737.853-3.604 0-6.404-4.094-6.404-7.612a6.41 6.41 0 016.404-6.405 6.41 6.41 0 016.405 6.404c0 1.7-.683 3.59-1.82 5.061a.285.285 0 01-.057.072c-.533.675-1.137 1.23-1.791 1.627z" fill="url(#btpaint0_linear_2166_10156)"/><defs><linearGradient id="btpaint0_linear_2166_10156" x1="19.77" y1="4" x2="19.77" y2="34.849" gradientUnits="userSpaceOnUse"><stop stop-color="#009E55"/><stop offset="1" stop-color="#34BA51"/></linearGradient></defs></svg>