<?xml version="1.0" encoding="utf-8"?><svg width="40" height="40" fill="none" xmlns="http://www.w3.org/2000/svg" viewBox="0 0 40 40"><path d="M24.667 4.86a3.846 3.846 0 00-.587-.469v7.784h7.784a3.84 3.84 0 00-.47-.587l-6.727-6.727z" fill="url(#atpaint0_linear_2781_12920)"/><path d="M8.63 4.04c-.43 0-.82.156-1.133.469-.313.313-.47.665-.47 1.134v28.591c0 .43.157.822.47 1.134.313.313.664.47 1.134.47h22.177c.43 0 .821-.157 1.134-.47.313-.313.469-.665.469-1.134V14.6h-8.996c-.43 0-.821-.157-1.134-.47a1.504 1.504 0 01-.469-1.134V4H8.631v.04zm15.411 15.41c.587-.548 1.486-.548 2.034 0l.665.626c.587.586.587 1.486.039 2.073l-.04.039-7.391 7.118c-.587.548-1.526.548-2.073-.039l-4.576-4.654a1.475 1.475 0 010-2.073l.039-.04.664-.625a1.464 1.464 0 012.034.039l2.895 2.933 5.71-5.397z" fill="url(#atpaint1_linear_2781_12920)"/><defs><linearGradient id="atpaint0_linear_2781_12920" x1="27.972" y1="4.391" x2="27.972" y2="12.175" gradientUnits="userSpaceOnUse"><stop stop-color="#009E55"/><stop offset="1" stop-color="#34BA51"/></linearGradient><linearGradient id="atpaint1_linear_2781_12920" x1="19.719" y1="4" x2="19.719" y2="35.837" gradientUnits="userSpaceOnUse"><stop stop-color="#009E55"/><stop offset="1" stop-color="#34BA51"/></linearGradient></defs></svg>