<?xml version="1.0" encoding="utf-8"?><svg width="72" height="46" fill="none" xmlns="http://www.w3.org/2000/svg" viewBox="0 0 72 46"><path d="M49 1.917a21.083 21.083 0 100 42.166 21.083 21.083 0 000-42.166zm0 38.333a17.25 17.25 0 110-34.499 17.25 17.25 0 010 34.5zm1.13-25.55a6.401 6.401 0 015.022 2.646 1.917 1.917 0 002.683.364 1.918 1.918 0 00.345-2.702 10.197 10.197 0 00-8.05-4.14 10.677 10.677 0 00-9.832 7.34h-2.799a1.916 1.916 0 100 3.834h1.917v1.916h-1.917a1.916 1.916 0 100 3.834h2.799a10.675 10.675 0 009.832 7.34 10.196 10.196 0 008.05-4.14 1.918 1.918 0 00-.927-3.282 1.915 1.915 0 00-2.101 1.04 6.402 6.402 0 01-5.022 2.645 6.555 6.555 0 01-5.597-3.603H49a1.917 1.917 0 100-3.834h-5.654A8.105 8.105 0 0143.25 23c.013-.321.045-.641.096-.958H49a1.917 1.917 0 100-3.834h-4.466a6.555 6.555 0 015.597-3.507z" fill="url(#arpaint0_linear_2034_9814)"/><circle cx="23" cy="23" r="23" fill="#fff"/><path d="M21.083 17.25h7.666a1.917 1.917 0 000-3.833h-3.833V11.5a1.916 1.916 0 10-3.833 0v1.917a5.75 5.75 0 000 11.5h3.833a1.917 1.917 0 010 3.833h-7.667a1.916 1.916 0 100 3.833h3.834V34.5a1.917 1.917 0 103.833 0v-1.917a5.75 5.75 0 100-11.5h-3.833a1.916 1.916 0 110-3.833zm1.916-15.333a21.083 21.083 0 100 42.166 21.083 21.083 0 000-42.166zm0 38.333a17.25 17.25 0 110-34.499 17.25 17.25 0 010 34.5z" fill="url(#arpaint1_linear_2034_9814)"/><defs><linearGradient id="arpaint0_linear_2034_9814" x1="48.999" y1="1.917" x2="48.999" y2="44.083" gradientUnits="userSpaceOnUse"><stop stop-color="#009E55"/><stop offset="1" stop-color="#34BA51"/></linearGradient><linearGradient id="arpaint1_linear_2034_9814" x1="22.999" y1="1.917" x2="22.999" y2="44.083" gradientUnits="userSpaceOnUse"><stop stop-color="#009E55"/><stop offset="1" stop-color="#34BA51"/></linearGradient></defs></svg>