<?xml version="1.0" encoding="utf-8"?><svg width="24" height="24" fill="none" xmlns="http://www.w3.org/2000/svg" viewBox="0 0 24 24"><circle cx="12" cy="12" r="11.5" stroke="url(#azpaint0_linear_4338_18015)"/><mask id="aza" fill="#fff"><ellipse cx="12" cy="17.86" rx=".837" ry="1.116"/></mask><ellipse cx="12" cy="17.86" rx=".837" ry="1.116" fill="url(#azpaint1_linear_4338_18015)"/><path d="M11.838 17.86a.343.343 0 01-.046.19c-.003.005.008-.012.043-.032a.342.342 0 01.165-.041v2c.617 0 1.099-.336 1.392-.727a2.32 2.32 0 00.446-1.39h-2zm.162.117c.07 0 .128.02.166.041.035.02.046.037.042.032a.343.343 0 01-.045-.19h-2c0 .504.152.999.445 1.39.294.391.776.727 1.392.727v-2zm.163-.117c0-.112.036-.176.045-.189.004-.005-.007.012-.042.032a.342.342 0 01-.166.041v-2c-.616 0-1.098.336-1.392.727a2.32 2.32 0 00-.445 1.39h2zM12 17.744a.342.342 0 01-.165-.041c-.035-.02-.046-.037-.043-.032.01.013.046.077.046.19h2a2.32 2.32 0 00-.446-1.39c-.293-.391-.775-.727-1.392-.727v2z" fill="url(#azpaint2_linear_4338_18015)" mask="url(#aza)"/><rect x="11.582" y="5.442" width=".837" height="9.209" rx=".419" fill="url(#azpaint3_linear_4338_18015)" stroke="url(#azpaint4_linear_4338_18015)" stroke-width=".837"/><defs><linearGradient id="azpaint0_linear_4338_18015" x1="12" y1="0" x2="12" y2="24" gradientUnits="userSpaceOnUse"><stop stop-color="#009E55"/><stop offset="1" stop-color="#34BA51"/></linearGradient><linearGradient id="azpaint1_linear_4338_18015" x1="12" y1="16.744" x2="12" y2="18.977" gradientUnits="userSpaceOnUse"><stop stop-color="#009E55"/><stop offset="1" stop-color="#34BA51"/></linearGradient><linearGradient id="azpaint2_linear_4338_18015" x1="12" y1="16.744" x2="12" y2="18.977" gradientUnits="userSpaceOnUse"><stop stop-color="#009E55"/><stop offset="1" stop-color="#34BA51"/></linearGradient><linearGradient id="azpaint3_linear_4338_18015" x1="12" y1="5.023" x2="12" y2="15.07" gradientUnits="userSpaceOnUse"><stop stop-color="#009E55"/><stop offset="1" stop-color="#34BA51"/></linearGradient><linearGradient id="azpaint4_linear_4338_18015" x1="12" y1="5.023" x2="12" y2="15.07" gradientUnits="userSpaceOnUse"><stop stop-color="#009E55"/><stop offset="1" stop-color="#34BA51"/></linearGradient></defs></svg>