<?xml version="1.0" encoding="utf-8"?><svg width="46" height="46" fill="none" xmlns="http://www.w3.org/2000/svg" viewBox="0 0 46 46"><path fill-rule="evenodd" clip-rule="evenodd" d="M29.559 10.415l3.036 10.646c.066.163.102.341.102.527a1.423 1.423 0 01-1.44 1.414H14.322a1.44 1.44 0 01-1.141-.56 1.4 1.4 0 01-.237-1.238l3.078-10.789a1.43 1.43 0 011.378-1.03h10.78c.641 0 1.205.42 1.379 1.03zm-11.075 1.797l-2.27 7.962h13.152l-2.27-7.962h-8.612zm4.207 23.704L19.656 25.27a1.43 1.43 0 00-1.379-1.03H7.497a1.43 1.43 0 00-1.378 1.03L3.04 36.06a1.4 1.4 0 00.237 1.236c.27.353.693.56 1.141.56H21.362c.791 0 1.432-.632 1.432-1.413 0-.186-.036-.364-.103-.527zM6.31 35.03l2.271-7.962h8.612l2.27 7.962H6.31zm37.426.887L40.7 25.27a1.43 1.43 0 00-1.378-1.03h-10.78a1.43 1.43 0 00-1.379 1.03l-3.077 10.79a1.4 1.4 0 00.237 1.236c.27.353.693.56 1.14.56h16.944c.791 0 1.432-.632 1.432-1.413a1.39 1.39 0 00-.103-.527zm-16.381-.887l2.27-7.962h8.612l2.27 7.962H27.356z" fill="url(#bapaint0_linear_4960_20164)"/><defs><linearGradient id="bapaint0_linear_4960_20164" x1="23.413" y1="9.385" x2="23.413" y2="37.857" gradientUnits="userSpaceOnUse"><stop stop-color="#009E55"/><stop offset="1" stop-color="#34BA51"/></linearGradient></defs></svg>