<?xml version="1.0" encoding="utf-8"?><svg width="26" height="26" xmlns="http://www.w3.org/2000/svg" viewBox="0 0 26 26"><path d="M20.396 10.222H5.603A2.1 2.1 0 003.5 12.324v4.506a2.1 2.1 0 002.103 2.102h2.59v-.75h-2.59c-.751 0-1.352-.601-1.352-1.352v-4.506c0-.75.6-1.352 1.352-1.352h14.793c.751 0 1.352.601 1.352 1.352v4.506c0 .75-.6 1.352-1.352 1.352h-2.403v.75h2.403A2.1 2.1 0 0022.5 16.83v-4.506c.037-1.164-.939-2.102-2.103-2.102z" fill="#009E55"/><path d="M18.745 10.973H7.443V3.237h11.302v7.735zm-10.55-.752h9.8V3.99h-9.8v6.232zM7.443 15.028v7.734h11.302v-7.734H7.443zm10.551 6.983h-9.8V15.78h9.8v6.232z" fill="#009E55"/><path d="M9.538 18.764h6.9v.76h-6.9v-.76z" fill="#009E55"/></svg>