<?xml version="1.0" encoding="utf-8"?><svg width="46" height="46" fill="none" xmlns="http://www.w3.org/2000/svg" viewBox="0 0 46 46"><path d="M41.61 38.89L10.945 8.222 7.11 4.389a1.925 1.925 0 10-2.722 2.722l3.277 3.258V22.77a17.25 17.25 0 007.226 14.03l6.996 5.003a1.917 1.917 0 002.223 0l6.996-5.003c.58-.41 1.13-.858 1.648-1.342l6.134 6.153a1.916 1.916 0 002.721 0 1.915 1.915 0 000-2.722zm-12.726-5.195L23 37.892l-5.884-4.197A13.417 13.417 0 0111.5 22.77v-8.567l18.534 18.553c-.364.326-.748.632-1.15.939zM19.3 9.718A19.454 19.454 0 0023 8.03a18.822 18.822 0 0011.5 2.664V22.77c0 .758-.063 1.515-.192 2.262a1.918 1.918 0 001.59 2.204h.307a1.916 1.916 0 001.917-1.61c.15-.951.228-1.912.23-2.875V8.49a1.916 1.916 0 00-.709-1.476 1.916 1.916 0 00-1.59-.402A15.123 15.123 0 0124.11 4.178a1.917 1.917 0 00-2.185 0 15.334 15.334 0 01-3.833 1.917 1.922 1.922 0 001.227 3.642l-.02-.02z" fill="url(#bgpaint0_linear_3483_14200)"/><defs><linearGradient id="bgpaint0_linear_3483_14200" x1="23.001" y1="3.825" x2="23.001" y2="42.178" gradientUnits="userSpaceOnUse"><stop stop-color="#009E55"/><stop offset="1" stop-color="#34BA51"/></linearGradient></defs></svg>