<?xml version="1.0" encoding="utf-8"?><svg width="32" height="32" fill="none" xmlns="http://www.w3.org/2000/svg" viewBox="0 0 32 32"><path clip-rule="evenodd" d="M21.978 26.82c1.497.667 2.06-.733 2.06-.733L28 5.79c-.031-1.368-1.841-.541-1.841-.541L3.973 14.125s-1.06.381-.967 1.05c.093.668.936.986.936.986l5.585 1.909s1.685 5.631 2.029 6.713c.312 1.05.593 1.082.593 1.082.312.127.592-.096.592-.096l3.62-3.34 5.617 4.39zM23.96 9.383s.78-.477.75 0c0 0 .124.063-.282.509-.374.382-9.205 8.463-10.39 9.545a.336.336 0 00-.156.286l-.344 2.991c-.062.318-.468.35-.562.064l-1.466-4.9a.473.473 0 01.187-.541l12.263-7.954z" stroke="currentColor"/></svg>