<?xml version="1.0" encoding="utf-8"?><svg width="40" height="40" fill="none" xmlns="http://www.w3.org/2000/svg" viewBox="0 0 40 40"><path d="M30.81 8.75h-.724V6.86c0-1.04-.82-1.86-1.86-1.86s-1.86.82-1.86 1.86v1.89h-4.569V6.86c0-1.04-.82-1.86-1.86-1.86s-1.859.82-1.859 1.86v1.89h-4.57V6.86c0-1.04-.819-1.86-1.859-1.86S9.79 5.82 9.79 6.86v1.89h-.725A4.075 4.075 0 005 12.816v18.058a4.075 4.075 0 004.065 4.065h21.746a4.075 4.075 0 004.065-4.065V12.816A4.075 4.075 0 0030.81 8.75zm0 23.479H9.065a1.345 1.345 0 01-1.355-1.355V17.102h24.455v13.772c0 .756-.598 1.355-1.355 1.355z" fill="url(#aopaint0_linear_1602_8593)"/><path d="M14.8 19.812h-3.75a.552.552 0 00-.535.536v2.395c0 .283.252.536.535.536h3.75a.552.552 0 00.536-.536v-2.395a.552.552 0 00-.535-.536z" fill="url(#aopaint1_linear_1602_8593)"/><path d="M21.829 19.812h-3.782a.552.552 0 00-.536.536v2.395c0 .283.252.536.536.536h3.782a.552.552 0 00.535-.536v-2.395a.552.552 0 00-.535-.536z" fill="url(#aopaint2_linear_1602_8593)"/><path d="M28.856 19.812h-3.781a.552.552 0 00-.536.536v2.395c0 .283.252.536.536.536h3.75a.552.552 0 00.536-.536v-2.395c.031-.284-.221-.536-.505-.536z" fill="url(#aopaint3_linear_1602_8593)"/><path d="M14.8 26.02h-3.75a.552.552 0 00-.535.536v2.395c0 .284.252.536.535.536h3.75a.552.552 0 00.536-.536v-2.395a.552.552 0 00-.535-.536z" fill="url(#aopaint4_linear_1602_8593)"/><path d="M21.829 26.02h-3.782a.552.552 0 00-.536.536v2.395c0 .284.252.536.536.536h3.782a.552.552 0 00.535-.535v-2.396a.552.552 0 00-.535-.536z" fill="url(#aopaint5_linear_1602_8593)"/><path d="M28.856 26.02h-3.781a.552.552 0 00-.536.536v2.395c0 .284.252.536.536.536h3.75a.552.552 0 00.536-.536v-2.395c.031-.283-.221-.536-.505-.536z" fill="url(#aopaint6_linear_1602_8593)"/><defs><linearGradient id="aopaint0_linear_1602_8593" x1="19.938" y1="5" x2="19.938" y2="34.939" gradientUnits="userSpaceOnUse"><stop stop-color="#009E55"/><stop offset="1" stop-color="#34BA51"/></linearGradient><linearGradient id="aopaint1_linear_1602_8593" x1="12.925" y1="19.812" x2="12.925" y2="23.279" gradientUnits="userSpaceOnUse"><stop stop-color="#009E55"/><stop offset="1" stop-color="#34BA51"/></linearGradient><linearGradient id="aopaint2_linear_1602_8593" x1="19.938" y1="19.812" x2="19.938" y2="23.279" gradientUnits="userSpaceOnUse"><stop stop-color="#009E55"/><stop offset="1" stop-color="#34BA51"/></linearGradient><linearGradient id="aopaint3_linear_1602_8593" x1="26.951" y1="19.812" x2="26.951" y2="23.279" gradientUnits="userSpaceOnUse"><stop stop-color="#009E55"/><stop offset="1" stop-color="#34BA51"/></linearGradient><linearGradient id="aopaint4_linear_1602_8593" x1="12.925" y1="26.02" x2="12.925" y2="29.487" gradientUnits="userSpaceOnUse"><stop stop-color="#009E55"/><stop offset="1" stop-color="#34BA51"/></linearGradient><linearGradient id="aopaint5_linear_1602_8593" x1="19.938" y1="26.02" x2="19.938" y2="29.487" gradientUnits="userSpaceOnUse"><stop stop-color="#009E55"/><stop offset="1" stop-color="#34BA51"/></linearGradient><linearGradient id="aopaint6_linear_1602_8593" x1="26.951" y1="26.02" x2="26.951" y2="29.487" gradientUnits="userSpaceOnUse"><stop stop-color="#009E55"/><stop offset="1" stop-color="#34BA51"/></linearGradient></defs></svg>