<?xml version="1.0" encoding="utf-8"?><svg width="119" height="40" fill="none" xmlns="http://www.w3.org/2000/svg" viewBox="0 0 119 40"><rect width="119" height="40" rx="6" fill="currentColor"/><path d="M23.804 19.7c0-2.8 2.3-4.1 2.4-4.2-1.3-1.9-3.3-2.1-4-2.2-1.7-.2-3.3 1-4.2 1-.9 0-2.2-1-3.6-1-1.8 0-3.5 1.1-4.5 2.7-1.9 3.3-.5 8.3 1.4 11 .9 1.3 2 2.8 3.4 2.8 1.4-.1 1.9-.9 3.6-.9 1.7 0 2.1.9 3.6.9s2.4-1.3 3.3-2.7c1.1-1.5 1.5-3 1.5-3.1 0 .1-2.9-1-2.9-4.3zM21.004 11.6c.7-.9 1.3-2.2 1.1-3.5-1.1 0-2.4.7-3.2 1.7-.7.8-1.3 2.1-1.1 3.4 1.2 0 2.5-.7 3.2-1.6zM41.304 26.5h-4.7l-1.1 3.4h-2l4.5-12.4h2l4.5 12.4h-2l-1.2-3.4zm-4.2-1.5h3.8l-1.9-5.5h-.1l-1.8 5.5zM54.204 25.4c0 2.8-1.5 4.6-3.8 4.6-1.3 0-2.3-.6-2.8-1.6v4.5h-1.9v-12h1.8v1.5c.5-1 1.6-1.6 2.9-1.6 2.2-.1 3.8 1.8 3.8 4.6zm-2 0c0-1.8-.9-3-2.4-3-1.4 0-2.4 1.2-2.4 3s1 3 2.4 3c1.5 0 2.4-1.2 2.4-3zM64.104 25.4c0 2.8-1.5 4.6-3.8 4.6-1.3 0-2.3-.6-2.8-1.6v4.5h-1.9v-12h1.8v1.5c.5-1 1.6-1.6 2.9-1.6 2.3-.1 3.8 1.8 3.8 4.6zm-1.9 0c0-1.8-.9-3-2.4-3-1.4 0-2.4 1.2-2.4 3s1 3 2.4 3c1.5 0 2.4-1.2 2.4-3zM70.704 26.4c.1 1.2 1.3 2 3 2 1.6 0 2.7-.8 2.7-1.9 0-1-.7-1.5-2.3-1.9l-1.6-.4c-2.3-.6-3.3-1.6-3.3-3.3 0-2.1 1.9-3.6 4.5-3.6s4.4 1.5 4.5 3.6h-1.9c-.1-1.2-1.1-2-2.6-2s-2.5.8-2.5 1.9c0 .9.7 1.4 2.3 1.8l1.4.3c2.5.6 3.6 1.6 3.6 3.4 0 2.3-1.9 3.8-4.8 3.8-2.8 0-4.6-1.4-4.7-3.7h1.7zM82.304 18.7v2.1h1.7v1.5h-1.7v5c0 .8.3 1.1 1.1 1.1h.6v1.5c-.2.1-.6.1-1 .1-1.8 0-2.5-.7-2.5-2.4v-5.2h-1.3v-1.5h1.3v-2.1h1.8v-.1zM85.104 25.4c0-2.8 1.7-4.6 4.3-4.6 2.6 0 4.3 1.8 4.3 4.6 0 2.9-1.7 4.6-4.3 4.6-2.7 0-4.3-1.8-4.3-4.6zm6.7 0c0-2-.9-3.1-2.4-3.1s-2.4 1.1-2.4 3.1.9 3.1 2.4 3.1 2.4-1.2 2.4-3.1zM95.204 20.8h1.8v1.6c.3-1 1.1-1.6 2.2-1.6.3 0 .5 0 .6.1v1.7c-.1-.1-.5-.1-.8-.1-1.2 0-1.9.8-1.9 2.1V30h-1.9v-9.2zM108.404 27.2c-.2 1.6-1.9 2.8-3.9 2.8-2.6 0-4.3-1.8-4.3-4.6s1.6-4.7 4.2-4.7c2.5 0 4.1 1.7 4.1 4.5v.6h-6.4v.1c0 1.5 1 2.6 2.4 2.6 1 0 1.8-.5 2.1-1.3h1.8zm-6.3-2.7h4.5c0-1.4-.9-2.3-2.2-2.3-1.3 0-2.2 1-2.3 2.3zM35.704 10.7h.8c.7 0 1.1-.4 1.1-1s-.4-.9-1.1-.9c-.7 0-1.2.4-1.2.9h-.9c.1-1.1.9-1.7 2.1-1.7 1.2 0 2 .7 2 1.6 0 .7-.4 1.2-1.1 1.4v.1c.8.1 1.3.6 1.3 1.4 0 1-1 1.8-2.2 1.8-1.3 0-2.2-.7-2.2-1.8h.9c.1.6.6.9 1.4.9.8 0 1.3-.4 1.3-1s-.5-1-1.3-1h-.8v-.7h-.1zM39.804 12.8c0-.8.6-1.3 1.7-1.3l1.2-.1V11c0-.5-.3-.7-.9-.7-.5 0-.8.2-.9.5h-.9c.1-.8.8-1.3 1.8-1.3 1.1 0 1.8.6 1.8 1.5v3.1h-.9v-.6h-.1c-.3.5-.8.7-1.4.7-.7 0-1.4-.6-1.4-1.4zm2.9-.4V12l-1.1.1c-.6 0-.9.3-.9.6 0 .4.4.6.8.6.7.1 1.2-.3 1.2-.9zM46.004 10.3v3.8h-.9V9.6h3v.7h-2.1zM53.404 11.8c0 1.4-.7 2.3-1.9 2.3-.6 0-1.2-.3-1.4-.8h-.1v2.2h-.9v-6h.9v.7h.1c.3-.5.8-.8 1.4-.8 1.2.1 1.9 1 1.9 2.4zm-.9 0c0-1-.5-1.5-1.2-1.5s-1.2.6-1.2 1.5.5 1.5 1.2 1.5c.8.1 1.2-.5 1.2-1.5zM54.604 15.7v-.8h.3c.4 0 .7-.2.8-.6l.1-.2-1.6-4.5h1l1.1 3.6h.1l1.1-3.6h.9l-1.7 4.7c-.4 1.1-.8 1.4-1.7 1.4h-.4zM59.104 12.8h.9c.1.4.5.6 1 .6.6 0 1-.3 1-.7 0-.4-.3-.6-1-.6h-.7v-.7h.7c.5 0 .8-.2.8-.6 0-.3-.3-.6-.8-.6s-.9.2-.9.6h-.9c.1-.8.8-1.3 1.8-1.3 1.1 0 1.7.5 1.7 1.2 0 .5-.3.8-.7.9v.1c.6.1.9.5.9 1 0 .9-.7 1.4-1.8 1.4-1.1.1-1.9-.4-2-1.3zM64.104 14.1V9.6h.9v3.1l2.1-3.1h.9v4.5h-.9V11h-.1l-2.1 3.1h-.8zM72.804 10.3h-1.4v3.8h-.9v-3.8h-1.4v-.7h3.7v.7zM77.604 12.9c-.2.8-.9 1.3-2 1.3-1.3 0-2.1-.9-2.1-2.3s.8-2.4 2.1-2.4 2 .9 2 2.3v.3h-3.2c0 .8.5 1.3 1.2 1.3.5 0 .9-.2 1.1-.5h.9zm-3.1-1.5h2.3c0-.7-.5-1.2-1.1-1.2-.7.1-1.2.5-1.2 1.2zM81.404 9.6h2c.9 0 1.4.4 1.4 1.1 0 .5-.3.9-.8 1v.1c.6.1 1 .5 1 1 0 .8-.6 1.3-1.6 1.3h-2.1V9.6h.1zm.9.7v1.1h.9c.5 0 .8-.2.8-.6 0-.4-.2-.6-.7-.6h-1v.1zm0 1.8v1.3h1.1c.5 0 .8-.2.8-.7 0-.5-.3-.7-.9-.7h-1v.1z" fill="#fff"/></svg>