<?xml version="1.0" encoding="utf-8"?><svg width="61" height="46" fill="none" xmlns="http://www.w3.org/2000/svg" viewBox="0 0 61 46"><path d="M17.056 43.52c-2.461 0-4.559-.364-6.292-1.092-1.733-.728-3.155-1.733-4.264-3.016a12.935 12.935 0 01-2.496-4.42 21.041 21.041 0 01-.988-5.408c-.035-.936-.07-1.959-.104-3.068v-3.432c.035-1.144.07-2.201.104-3.172.07-1.907.399-3.692.988-5.356.59-1.699 1.439-3.172 2.548-4.42C7.696 8.888 9.135 7.9 10.868 7.172c1.733-.728 3.796-1.092 6.188-1.092 2.427 0 4.507.364 6.24 1.092 1.733.728 3.155 1.716 4.264 2.964 1.144 1.248 1.993 2.721 2.548 4.42.59 1.664.919 3.45.988 5.356.07.97.104 2.028.104 3.172v3.432c0 1.11-.035 2.132-.104 3.068-.07 1.907-.381 3.71-.936 5.408a12.936 12.936 0 01-2.496 4.42c-1.11 1.283-2.548 2.288-4.316 3.016-1.733.728-3.83 1.092-6.292 1.092zm0-5.98c2.253 0 3.9-.728 4.94-2.184 1.075-1.49 1.63-3.501 1.664-6.032.07-1.005.104-2.01.104-3.016v-3.12c0-1.04-.035-2.028-.104-2.964-.035-2.461-.59-4.437-1.664-5.928-1.04-1.525-2.687-2.288-4.94-2.288-2.219 0-3.865.763-4.94 2.288-1.04 1.49-1.595 3.467-1.664 5.928 0 .936-.017 1.924-.052 2.964v3.12c.035 1.005.052 2.01.052 3.016.07 2.53.641 4.541 1.716 6.032 1.075 1.456 2.704 2.184 4.888 2.184z" fill="url(#bzpaint0_linear_3632_14725)"/><path d="M43.416 43a.807.807 0 01-.544-.192.807.807 0 01-.192-.544v-4.096h-2.464a.807.807 0 01-.544-.192.807.807 0 01-.192-.544v-.736c0-.213.064-.384.192-.512a.74.74 0 01.544-.224h2.464v-1.824h-2.464a.807.807 0 01-.544-.192.807.807 0 01-.192-.544v-1.088c0-.213.064-.384.192-.512a.74.74 0 01.544-.224h2.464V21.368c0-.235.064-.416.192-.544a.74.74 0 01.544-.224h8.128c1.579 0 2.944.256 4.096.768 1.173.512 2.08 1.28 2.72 2.304.64 1.003.96 2.261.96 3.776 0 1.493-.32 2.73-.96 3.712-.64.981-1.547 1.728-2.72 2.24-1.152.49-2.517.736-4.096.736H45.88v1.824h6.176a.64.64 0 01.512.224.64.64 0 01.224.512v.736a.74.74 0 01-.224.544.692.692 0 01-.512.192H45.88v4.096a.74.74 0 01-.224.544c-.128.128-.31.192-.544.192h-1.696zm2.432-11.424h5.536c1.579 0 2.763-.352 3.552-1.056.79-.704 1.184-1.728 1.184-3.072 0-1.323-.384-2.347-1.152-3.072-.768-.725-1.963-1.088-3.584-1.088h-5.536v8.288z" fill="url(#bzpaint1_linear_3632_14725)"/><defs><linearGradient id="bzpaint0_linear_3632_14725" x1="17.5" y1="-14" x2="17.5" y2="64" gradientUnits="userSpaceOnUse"><stop stop-color="#009E55"/><stop offset="1" stop-color="#34BA51"/></linearGradient><linearGradient id="bzpaint1_linear_3632_14725" x1="50" y1="8" x2="50" y2="56" gradientUnits="userSpaceOnUse"><stop stop-color="#009E55"/><stop offset="1" stop-color="#34BA51"/></linearGradient></defs></svg>