<?xml version="1.0" encoding="utf-8"?><svg width="46" height="46" fill="none" xmlns="http://www.w3.org/2000/svg" viewBox="0 0 46 46"><path d="M23 21.083a1.917 1.917 0 100 3.834 1.917 1.917 0 000-3.834zm0-17.25a19.166 19.166 0 100 38.333 19.166 19.166 0 000-38.333zM24.917 38.2v-5.616a1.917 1.917 0 00-3.834 0V38.2A15.333 15.333 0 017.801 24.917h5.616a1.917 1.917 0 100-3.834H7.8A15.334 15.334 0 0121.083 7.801v5.616a1.917 1.917 0 003.834 0V7.8a15.333 15.333 0 0113.282 13.282h-5.616a1.917 1.917 0 100 3.834H38.2a15.333 15.333 0 01-13.282 13.282z" fill="url(#akpaint0_linear_3483_14194)"/><defs><linearGradient id="akpaint0_linear_3483_14194" x1="23" y1="3.833" x2="23" y2="42.167" gradientUnits="userSpaceOnUse"><stop stop-color="#009E55"/><stop offset="1" stop-color="#34BA51"/></linearGradient></defs></svg>