<?xml version="1.0" encoding="utf-8"?><svg width="224" height="75" fill="none" xmlns="http://www.w3.org/2000/svg" viewBox="0 0 224 75"><path d="M55.517 46.322h3.508l2.016 8.977h.03l2.017-8.977h3.523v11.535H64.4v-9.644h-.031l-2.18 9.644h-2.336l-2.094-9.644h-.03v9.644h-2.212V46.322zM68.595 53.58c0-.659.099-1.266.297-1.82.203-.555.492-1.03.867-1.428.38-.403.839-.717 1.375-.942.537-.225 1.14-.338 1.813-.338.682 0 1.291.113 1.828.338a3.81 3.81 0 011.367.941c.375.398.661.874.86 1.429.197.554.296 1.161.296 1.82 0 .66-.099 1.266-.297 1.82a4.103 4.103 0 01-.86 1.437 3.81 3.81 0 01-1.366.942c-.537.225-1.146.337-1.828.337-.672 0-1.276-.112-1.813-.337a3.983 3.983 0 01-1.375-.942 4.199 4.199 0 01-.867-1.436 5.381 5.381 0 01-.297-1.82zm2.305 0c0 .325.034.646.101.966.073.313.19.596.352.847.161.246.372.445.633.596.26.152.58.228.96.228.396 0 .725-.073.985-.22a1.81 1.81 0 00.633-.588c.156-.246.265-.526.328-.84.068-.319.102-.649.102-.989 0-.334-.034-.661-.102-.98a2.359 2.359 0 00-.328-.84 1.718 1.718 0 00-.633-.589c-.26-.151-.589-.227-.984-.227-.38 0-.7.075-.961.227-.26.152-.472.353-.633.604a2.574 2.574 0 00-.352.848 4.529 4.529 0 00-.101.957zM85.728 45.725c0 .413-.068.767-.204 1.06a1.933 1.933 0 01-.562.722c-.234.183-.516.319-.844.407a4.323 4.323 0 01-1.07.126c-.39 0-.75-.042-1.078-.126a2.432 2.432 0 01-.852-.407 1.933 1.933 0 01-.562-.722c-.13-.293-.196-.647-.196-1.06h1.602c.005.147.023.285.055.416a.883.883 0 00.164.337c.083.095.192.17.328.228.14.052.32.078.539.078.213 0 .39-.02.531-.062a.795.795 0 00.344-.204.714.714 0 00.172-.33c.031-.13.044-.285.039-.463h1.594zm-6.508 3.578h2.21v5.274h.032l3.102-5.273h2.32v8.553H84.68v-5.156h-.04l-3.007 5.156H79.22v-8.553zM94.094 49.303h2.211v3.092h3.25v-3.092h2.203v8.554h-2.203v-3.665h-3.25v3.665h-2.21v-8.553zM111.078 56.17c0 .256.013.468.039.636.031.162.071.293.117.392a.63.63 0 00.157.212.73.73 0 00.195.094v.353h-2.445c-.042-.1-.089-.23-.141-.392a2.26 2.26 0 01-.07-.605c-.172.178-.341.343-.508.495a2.859 2.859 0 01-.547.4c-.203.11-.437.196-.703.26a3.925 3.925 0 01-.961.101c-.38 0-.732-.057-1.055-.172a2.3 2.3 0 01-.828-.495 2.238 2.238 0 01-.547-.824 3.109 3.109 0 01-.195-1.146c0-.35.055-.675.164-.973a2.43 2.43 0 01.461-.792c.203-.23.448-.419.734-.565a3.06 3.06 0 01.977-.306l2.164-.322c.078-.01.161-.026.25-.047a.854.854 0 00.258-.102.663.663 0 00.195-.204.696.696 0 00.078-.353c0-.142-.023-.27-.07-.385a.671.671 0 00-.219-.306 1.06 1.06 0 00-.422-.204 2.5 2.5 0 00-.648-.07c-.297 0-.537.03-.719.094a.99.99 0 00-.422.25.927.927 0 00-.226.377 2.426 2.426 0 00-.102.456h-2.211c0-.105.016-.249.047-.432.036-.188.099-.392.188-.612a3.5 3.5 0 01.382-.667c.167-.225.383-.43.649-.612.271-.189.599-.343.984-.463.386-.12.847-.183 1.383-.189.76 0 1.375.079 1.844.236.474.152.841.353 1.101.604.266.246.443.523.532.832.093.303.14.607.14.91v4.536zm-2.211-2.488a7.338 7.338 0 01-.406.204 2.665 2.665 0 01-.539.15l-.586.11a5.32 5.32 0 00-.672.164 1.508 1.508 0 00-.484.251.994.994 0 00-.289.37c-.063.146-.094.329-.094.548 0 .184.029.343.086.48.057.13.135.24.234.329.104.083.224.146.36.188.135.042.281.063.437.063.083 0 .19-.008.32-.024a2.4 2.4 0 00.852-.322c.146-.094.276-.214.391-.36.114-.147.208-.325.281-.534.073-.215.109-.466.109-.753v-.864zM112.687 56.06h.883c.208-.392.38-.803.516-1.232.14-.434.252-.871.336-1.31.083-.44.143-.869.179-1.287.037-.424.063-.822.078-1.193.016-.372.021-.706.016-1.005 0-.298.003-.541.008-.73h6.656v6.757h1.07v3.853h-2.078v-2.056h-5.586v2.056h-2.078V56.06zm6.469 0v-4.952h-2.531c0 .157-.003.35-.008.581 0 .23-.011.487-.031.77a15.79 15.79 0 01-.078.886 8.528 8.528 0 01-.149.942 9.333 9.333 0 01-.234.926 4.772 4.772 0 01-.336.847h3.367zM125.562 54.27c0 .08.008.184.023.315a2.439 2.439 0 00.297.886c.089.152.206.29.352.417.151.125.333.227.547.306.218.078.479.117.781.117.156 0 .31-.02.461-.063a1.71 1.71 0 00.43-.196c.13-.089.242-.193.335-.314.099-.125.17-.267.211-.423h2.289c0 .157-.033.337-.101.541a2.622 2.622 0 01-.313.612 3.57 3.57 0 01-1.257 1.138 4.478 4.478 0 01-.977.369c-.359.094-.76.141-1.203.141a4.873 4.873 0 01-1.602-.259 3.412 3.412 0 01-1.304-.8c-.37-.372-.662-.85-.875-1.436-.214-.586-.321-1.298-.321-2.135 0-.58.076-1.138.227-1.671a4.098 4.098 0 01.719-1.42 3.509 3.509 0 011.25-.974c.51-.246 1.122-.369 1.836-.369.755 0 1.39.126 1.906.377.515.246.93.596 1.242 1.052.318.455.544 1.004.68 1.648.135.643.203 1.357.203 2.142h-5.836zm3.539-1.474c0-.377-.057-.691-.172-.942a1.608 1.608 0 00-.422-.596 1.368 1.368 0 00-.554-.314 1.989 1.989 0 00-.586-.095c-.183 0-.375.032-.579.095-.203.057-.39.162-.562.313a1.744 1.744 0 00-.422.597c-.109.251-.164.565-.164.942h3.461zM139.937 52.701h.421l2.336-3.398h2.524l-2.86 3.956 3.008 4.598h-2.672l-2.336-3.633h-.421v3.633h-2.204v-3.633h-.484l-2.398 3.633h-2.578l3.023-4.598-2.828-3.956h2.531l2.32 3.398h.414v-3.398h2.204v3.398zM146.866 49.303h2.211v3.092h3.25v-3.092h2.203v8.554h-2.203v-3.665h-3.25v3.665h-2.211v-8.553zM165.506 49.303h2.211v8.554h-2.211v-8.553zm-8.539 0h2.211v2.975h2.008c.526 0 .995.055 1.406.165a2.8 2.8 0 011.055.51c.286.23.505.523.656.878.151.351.227.767.227 1.248 0 .434-.063.806-.188 1.114a2.457 2.457 0 01-.484.777 2.322 2.322 0 01-.649.487 4.153 4.153 0 01-.703.267 3.899 3.899 0 01-.64.11 5.887 5.887 0 01-.446.023h-4.453v-8.553zm2.211 6.883h1.617c.172 0 .341-.013.508-.04.172-.031.326-.086.461-.164a.94.94 0 00.336-.338c.083-.146.125-.335.125-.565 0-.225-.044-.41-.133-.557a.891.891 0 00-.351-.345 1.502 1.502 0 00-.516-.173 3.305 3.305 0 00-.617-.055h-1.43v2.237zM176.654 45.725c0 .413-.067.767-.203 1.06a1.934 1.934 0 01-.562.722c-.235.183-.516.319-.844.407a4.322 4.322 0 01-1.07.126c-.391 0-.75-.042-1.078-.126a2.431 2.431 0 01-.852-.407 1.924 1.924 0 01-.562-.722c-.131-.293-.196-.647-.196-1.06h1.602c.005.147.023.285.054.416a.885.885 0 00.165.337.89.89 0 00.328.228c.14.052.32.078.539.078.213 0 .39-.02.531-.062a.799.799 0 00.344-.204.725.725 0 00.172-.33c.031-.13.044-.285.039-.463h1.593zm-6.507 3.578h2.211v5.274h.031l3.101-5.273h2.321v8.553h-2.203v-5.156h-.04l-3.007 5.156h-2.414v-8.553zM192.458 46.188c.006.44-.07.8-.226 1.083a1.94 1.94 0 01-.625.675c-.255.167-.552.29-.891.369a7.284 7.284 0 01-1.031.149 8.252 8.252 0 00-.758.102c-.26.042-.515.11-.765.204-.25.089-.487.21-.711.36-.224.147-.425.33-.602.55-.177.22-.323.481-.437.785-.115.303-.185.66-.211 1.067a2.46 2.46 0 01.398-.769c.182-.246.409-.458.68-.636.276-.183.594-.327.953-.431.359-.11.758-.165 1.195-.165a4 4 0 011.578.298 3.33 3.33 0 011.196.824c.328.356.578.785.75 1.287.177.503.265 1.06.265 1.672 0 .68-.101 1.297-.304 1.852a4.026 4.026 0 01-.86 1.428c-.37.392-.823.698-1.359.918-.537.215-1.141.322-1.813.322-.979 0-1.789-.202-2.429-.604-.641-.403-1.133-1.06-1.477-1.97a5.866 5.866 0 01-.266-.981c-.062-.345-.109-.67-.14-.973a12.814 12.814 0 01-.047-.793 27.308 27.308 0 01-.008-.447c0-.816.094-1.562.281-2.236a4.83 4.83 0 01.891-1.774 4.576 4.576 0 011.578-1.216c.646-.309 1.427-.505 2.344-.589.292-.026.497-.073.617-.141.125-.073.203-.147.234-.22h2zm-5.625 7.392c0 .325.034.646.102.966.073.313.19.596.352.847.161.246.372.445.632.596.261.152.581.228.961.228.401 0 .732-.073.993-.22a1.81 1.81 0 00.632-.588c.157-.246.266-.526.328-.84.063-.319.094-.649.094-.989 0-.334-.036-.648-.109-.941a2.173 2.173 0 00-.344-.762 1.566 1.566 0 00-.609-.51c-.25-.125-.552-.188-.907-.188-.38 0-.705.065-.976.196a1.787 1.787 0 00-.656.518c-.172.22-.297.476-.375.77a3.496 3.496 0 00-.118.917zM202.005 56.17c0 .256.013.468.039.636.031.162.07.293.117.392a.63.63 0 00.157.212.73.73 0 00.195.094v.353h-2.445c-.042-.1-.089-.23-.141-.392a2.26 2.26 0 01-.07-.605c-.172.178-.342.343-.508.495a2.859 2.859 0 01-.547.4c-.203.11-.438.196-.703.26a3.925 3.925 0 01-.961.101c-.38 0-.732-.057-1.055-.172a2.283 2.283 0 01-.828-.495 2.238 2.238 0 01-.547-.824 3.109 3.109 0 01-.195-1.146c0-.35.055-.675.164-.973a2.43 2.43 0 01.461-.792c.203-.23.448-.419.734-.565.292-.152.617-.254.977-.306l2.164-.322c.078-.01.161-.026.25-.047a.854.854 0 00.258-.102.663.663 0 00.195-.204.696.696 0 00.078-.353c0-.142-.023-.27-.07-.385a.671.671 0 00-.219-.306 1.06 1.06 0 00-.422-.204 2.5 2.5 0 00-.648-.07c-.297 0-.537.03-.719.094a.99.99 0 00-.422.25.916.916 0 00-.226.377 2.426 2.426 0 00-.102.456h-2.211c0-.105.016-.249.047-.432.036-.188.099-.392.187-.612a3.56 3.56 0 01.383-.667c.167-.225.383-.43.649-.612.271-.189.599-.343.984-.463s.846-.183 1.383-.189c.76 0 1.375.079 1.844.236.474.152.841.353 1.101.604.266.246.443.523.531.832.094.303.141.607.141.91v4.536zm-2.211-2.488a7.338 7.338 0 01-.406.204 2.684 2.684 0 01-.539.15l-.586.11a5.32 5.32 0 00-.672.164 1.508 1.508 0 00-.484.251.994.994 0 00-.289.37c-.063.146-.094.329-.094.548 0 .184.028.343.086.48.057.13.135.24.234.329.104.083.224.146.359.188.136.042.282.063.438.063.083 0 .19-.008.32-.024a2.4 2.4 0 00.852-.322c.146-.094.276-.214.39-.36.115-.147.209-.325.282-.534.073-.215.109-.466.109-.753v-.864zM204.348 49.303h2.211v3.092h3.25v-3.092h2.204v8.554h-2.204v-3.665h-3.25v3.665h-2.211v-8.553zM214.512 49.303h2.211v3.25l3.188-3.25h2.937l-3.515 3.555 3.664 5h-2.883l-2.5-3.61-.891.902v2.707h-2.211v-8.553zM64.656 22.848a11.17 11.17 0 00-.14-.452 2.786 2.786 0 00-.235-.527 2.713 2.713 0 00-.365-.518 2.178 2.178 0 00-.544-.452 3.036 3.036 0 00-.788-.32 4.215 4.215 0 00-1.078-.123 3.47 3.47 0 00-.618.066 2.748 2.748 0 00-.732.255c-.25.119-.497.288-.74.508a3.21 3.21 0 00-.657.866c-.187.352-.34.779-.459 1.281-.119.503-.178 1.099-.178 1.79 0 .746.078 1.415.234 2.005.157.59.381 1.09.675 1.497.294.409.647.723 1.06.942.418.214.89.32 1.415.32.606 0 1.1-.094 1.481-.282.382-.189.685-.418.91-.688.231-.27.403-.552.515-.847.113-.295.2-.553.263-.772h2.86c-.157.866-.416 1.62-.779 2.26a5.563 5.563 0 01-1.322 1.582 5.324 5.324 0 01-1.753.942 6.693 6.693 0 01-2.062.31c-1.025 0-1.935-.17-2.728-.508a5.5 5.5 0 01-1.997-1.47c-.538-.633-.947-1.396-1.228-2.288-.282-.897-.422-1.899-.422-3.004 0-.853.081-1.625.243-2.316a7.46 7.46 0 01.675-1.836 5.92 5.92 0 011.032-1.394 5.538 5.538 0 011.284-.97c.469-.257.96-.446 1.472-.565a6.515 6.515 0 011.556-.188c.75 0 1.416.078 1.997.235.581.157 1.09.367 1.528.631.438.264.81.565 1.116.904.312.339.566.69.76 1.055.2.357.346.718.44 1.083.1.358.162.687.187.988h-2.878zM68.893 18.3h11.288v2.383h-4.21v11.46h-2.878v-11.46h-4.2V18.3zM82.374 18.3h6.263c.731 0 1.365.1 1.903.301.544.201.994.493 1.35.876.356.383.622.848.797 1.394.175.546.262 1.168.262 1.864 0 .647-.103 1.243-.31 1.79a3.97 3.97 0 01-.9 1.403 4.07 4.07 0 01-1.424.913c-.563.22-1.2.33-1.913.33h-3.15v4.972h-2.878V18.3zm2.878 6.479h2.729c.65 0 1.159-.16 1.528-.48.375-.32.562-.842.562-1.564 0-.364-.05-.674-.15-.932a1.54 1.54 0 00-.412-.63 1.532 1.532 0 00-.657-.368 2.87 2.87 0 00-.871-.122h-2.729v4.096zM94.833 25.221c0-1.035.138-1.996.413-2.881.275-.885.687-1.651 1.237-2.298a5.691 5.691 0 012.072-1.535c.831-.37 1.8-.555 2.906-.555 1.019 0 1.938.185 2.757.555.818.37 1.512.882 2.081 1.535a6.715 6.715 0 011.322 2.298c.306.885.459 1.846.459 2.881 0 1.03-.153 1.99-.459 2.882a6.818 6.818 0 01-1.322 2.307 6.066 6.066 0 01-2.081 1.526c-.819.37-1.738.555-2.757.555-1.106 0-2.075-.185-2.906-.555a5.74 5.74 0 01-2.072-1.526 6.551 6.551 0 01-1.237-2.307 9.729 9.729 0 01-.413-2.882zm6.628 4.765c.588 0 1.113-.119 1.575-.358a3.412 3.412 0 001.172-.988c.325-.427.572-.93.741-1.507a6.855 6.855 0 00.253-1.912c0-.69-.084-1.324-.253-1.902a4.468 4.468 0 00-.741-1.506 3.371 3.371 0 00-1.172-.999c-.462-.238-.987-.358-1.575-.358-.587 0-1.112.12-1.575.358a3.47 3.47 0 00-1.18.998c-.32.421-.567.923-.742 1.507a6.766 6.766 0 00-.253 1.902c0 .691.085 1.328.254 1.912.174.578.421 1.08.74 1.507.325.42.719.75 1.181.988.463.24.988.358 1.575.358zM110.658 18.3h2.766v9.426h.037l5.456-9.426h2.916v13.843h-2.766v-9.37h-.037l-5.447 9.37h-2.925V18.3zm5.822-.725c-1.2 0-2.103-.235-2.71-.706-.606-.477-.909-1.209-.909-2.194h2.175c.006.194.034.373.084.536.057.163.141.305.254.424.112.12.259.213.44.283.181.062.403.094.666.094.262 0 .484-.032.665-.094.188-.07.338-.16.45-.273.119-.12.204-.261.254-.424.056-.164.081-.345.075-.546h2.175c0 .985-.304 1.717-.91 2.194-.606.47-1.509.706-2.709.706zM133.42 20.683h-4.041l.01 2.09a48.543 48.543 0 01-.085 3.343c-.056.96-.15 1.799-.281 2.514-.125.71-.287 1.306-.487 1.79-.194.483-.425.872-.694 1.167a2.347 2.347 0 01-.919.622 3.284 3.284 0 01-1.134.188c-.338 0-.638-.022-.9-.066a3.215 3.215 0 01-.769-.216l-.009-2.647c.087.044.178.082.272.113.1.026.196.047.29.066.094.013.178.022.253.029.082.006.144.009.188.009.169 0 .325-.022.469-.066a.798.798 0 00.393-.31c.119-.158.222-.384.31-.679.087-.295.159-.687.215-1.177.063-.49.107-1.095.132-1.817a61.69 61.69 0 00.046-2.59V18.3h9.619v13.843h-2.878v-11.46zM139.373 18.3h10.115v2.383h-7.35v3.07h6.76v2.391h-6.76v3.494h7.679v2.505h-10.444V18.3zM161.244 22.848a10.624 10.624 0 00-.14-.452 2.835 2.835 0 00-.235-.527 2.674 2.674 0 00-.365-.518 2.18 2.18 0 00-.544-.452 3.034 3.034 0 00-.788-.32 4.21 4.21 0 00-1.078-.123c-.175 0-.381.023-.618.066a2.747 2.747 0 00-.732.255 3.11 3.11 0 00-.74.508 3.21 3.21 0 00-.657.866c-.187.352-.34.779-.459 1.281-.119.503-.178 1.099-.178 1.79 0 .746.078 1.415.234 2.005.157.59.382 1.09.675 1.497.294.409.647.723 1.06.942.418.214.89.32 1.415.32.607 0 1.1-.094 1.482-.282.381-.189.684-.418.909-.688a2.9 2.9 0 00.516-.847c.112-.295.2-.553.262-.772h2.859c-.156.866-.415 1.62-.778 2.26a5.552 5.552 0 01-1.322 1.582 5.317 5.317 0 01-1.753.942 6.687 6.687 0 01-2.062.31c-1.025 0-1.935-.17-2.728-.508a5.5 5.5 0 01-1.997-1.47c-.538-.633-.947-1.396-1.228-2.288-.282-.897-.422-1.899-.422-3.004 0-.853.081-1.625.244-2.316a7.42 7.42 0 01.675-1.836 5.893 5.893 0 011.031-1.394 5.553 5.553 0 011.284-.97c.469-.257.96-.446 1.472-.565a6.516 6.516 0 011.556-.188c.75 0 1.416.078 1.997.235a5.95 5.95 0 011.528.631c.438.264.81.565 1.116.904.312.339.566.69.759 1.055.2.357.347.718.441 1.083.1.358.162.687.187.988h-2.878zM166.822 18.3h10.031v2.383H169.7v3.07h3.422c.206 0 .472.006.797.018.325.013.669.06 1.031.142.369.075.738.197 1.106.367.375.17.713.411 1.013.725.3.308.544.703.731 1.186.188.478.281 1.068.281 1.77 0 .698-.093 1.285-.281 1.762a3.674 3.674 0 01-.722 1.186 3.193 3.193 0 01-.965.716 5.767 5.767 0 01-1.041.367c-.331.076-.637.12-.919.132-.275.013-.478.019-.609.019h-6.722V18.3zm2.878 11.45h3.113c.262 0 .531-.018.806-.056.281-.037.537-.119.769-.244.237-.126.431-.311.581-.556.15-.251.225-.584.225-.998 0-.433-.075-.772-.225-1.017a1.416 1.416 0 00-.572-.565 2.193 2.193 0 00-.806-.236 8.384 8.384 0 00-.891-.047h-3v3.72zM184.728 18.3h3.291l4.875 13.843h-3.132l-.881-2.854h-5.091l-.956 2.854h-3.037l4.931-13.843zm-.169 8.598h3.516l-1.716-5.481h-.037l-1.763 5.48zM195.012 18.3h2.887v5.264h5.41V18.3h2.878v13.843h-2.878v-6.187h-5.41v6.187h-2.887V18.3zM209.599 18.3h2.878v5.631l5.269-5.63h3.722l-5.625 5.668 5.953 8.174h-3.647l-4.266-6.13-1.406 1.44v4.69h-2.878V18.3zM26.77 26.657l12.481 42.831h-12.48V26.657z" fill="#009E55"/><path d="M1.058 69.398L19.581 2.8l19.141 66.597H1.058z" fill="#009E55"/><path d="M27.71 74.41l-.123-57.74 16.209 57.74H27.71z" fill="#fff" stroke="#009E55"/><path d="M38.587 69.35H1.275L19.59 3.373l18.997 65.975z" fill="#fff" stroke="#009E55"/><path d="M23.286 49.97c-2.205-6.054-4.454-15.09-4.454-25.166 0-4.247.44-8.675 1.367-13.102l-.75-.226L1.985 73.87h18.302l.309-.27c3.616-4.338 5.513-8.043 5.513-11.928.044-3.434-1.015-6.913-2.823-11.702z" fill="#009E55"/></svg>