<?xml version="1.0" encoding="utf-8"?><svg width="40" height="40" fill="none" xmlns="http://www.w3.org/2000/svg" viewBox="0 0 40 40"><path d="M10 6a4 4 0 00-4 4v4a4 4 0 004 4h4a4 4 0 004-4v-4a4 4 0 00-4-4h-4zm0 16a4 4 0 00-4 4v4a4 4 0 004 4h4a4 4 0 004-4v-4a4 4 0 00-4-4h-4zm12-12a4 4 0 014-4h4a4 4 0 014 4v4a4 4 0 01-4 4h-4a4 4 0 01-4-4v-4zm6 12a2 2 0 012 2v2h2a2 2 0 010 4h-2v2a2 2 0 01-4 0v-2h-2a2 2 0 010-4h2v-2a2 2 0 012-2z" fill="url(#bvpaint0_linear_1276_8404)"/><defs><linearGradient id="bvpaint0_linear_1276_8404" x1="20" y1="6" x2="20" y2="34" gradientUnits="userSpaceOnUse"><stop stop-color="#009E55"/><stop offset="1" stop-color="#34BA51"/></linearGradient></defs></svg>