<?xml version="1.0" encoding="utf-8"?><svg width="20" height="20" fill="none" xmlns="http://www.w3.org/2000/svg" viewBox="0 0 20 20"><circle cx="10" cy="10" r="9.5" fill="#fff" stroke="#E7E7E7"/><path d="M9.049 11.792c-.032-.4-.004-.744.084-1.032.096-.288.224-.544.384-.768a3.83 3.83 0 01.528-.6c.2-.176.384-.352.552-.528.176-.176.32-.364.432-.564.12-.2.18-.432.18-.696 0-.352-.108-.64-.324-.864-.208-.224-.576-.336-1.104-.336-.32 0-.648.06-.984.18-.328.12-.608.248-.84.384l-.384-.864a4.415 4.415 0 011.068-.48c.376-.12.84-.18 1.392-.18.392 0 .736.052 1.032.156.296.104.544.248.744.432.2.176.348.388.444.636.104.24.156.5.156.78 0 .376-.06.7-.18.972-.12.264-.268.5-.444.708-.176.208-.368.4-.576.576-.208.176-.4.364-.576.564a2.819 2.819 0 00-.444.648c-.12.24-.18.532-.18.876h-.96zm-.264 1.596c0-.232.072-.416.216-.552a.849.849 0 01.588-.204c.24 0 .432.068.576.204.152.136.228.32.228.552a.713.713 0 01-.228.54c-.144.144-.336.216-.576.216A.82.82 0 019 13.928a.733.733 0 01-.216-.54z" fill="gray"/></svg>