<?xml version="1.0" encoding="utf-8"?><svg width="40" height="40" fill="none" xmlns="http://www.w3.org/2000/svg" viewBox="0 0 40 40"><path fill-rule="evenodd" clip-rule="evenodd" d="M6.714 6.5C3.962 6.5 1.5 8.572 1.5 11.4v10.2c0 2.828 2.462 4.9 5.214 4.9H9V31a2 2 0 002 2h24a2 2 0 002-2V17a2 2 0 00-2-2h-4.513c.009-.065.013-.132.013-.2v-3.4c0-2.828-2.462-4.9-5.214-4.9H6.714zm20.8 8.5a1.517 1.517 0 01-.014-.2v-3.4c0-.927-.864-1.9-2.214-1.9H6.714c-1.35 0-2.214.973-2.214 1.9v10.2c0 .927.864 1.9 2.214 1.9H9V17a2 2 0 012-2h16.513zM23 21.5a2.5 2.5 0 100 5 2.5 2.5 0 000-5zM17.5 24a5.5 5.5 0 1111 0 5.5 5.5 0 01-11 0z" fill="url(#appaint0_linear_1276_8397)"/><defs><linearGradient id="appaint0_linear_1276_8397" x1="19.25" y1="6.5" x2="19.25" y2="33" gradientUnits="userSpaceOnUse"><stop stop-color="#009E55"/><stop offset="1" stop-color="#34BA51"/></linearGradient></defs></svg>