<?xml version="1.0" encoding="utf-8"?><svg width="40" height="40" fill="none" xmlns="http://www.w3.org/2000/svg" viewBox="0 0 40 40"><path d="M20 3C10.626 3 3 10.626 3 20c0 9.374 7.626 17 17 17 9.374 0 17-7.626 17-17 0-9.374-7.626-17-17-17zm1.308 31.318v-1.241a1.307 1.307 0 10-2.616 0v1.24c-6.888-.623-12.386-6.12-13.01-13.01h1.24a1.307 1.307 0 100-2.615h-1.24c.624-6.889 6.121-12.387 13.01-13.01v1.24a1.307 1.307 0 102.616 0v-1.24c6.888.624 12.386 6.122 13.01 13.01h-1.24a1.307 1.307 0 100 2.615h1.24c-.623 6.889-6.121 12.387-13.01 13.01z" fill="url(#brpaint0_linear_1602_8606)"/><path d="M21.308 19.42v-7.266a1.307 1.307 0 10-2.616 0V20c0 .416.207.771.51 1.01l3.791 3.832a1.307 1.307 0 101.86-1.839l-3.545-3.582z" fill="url(#brpaint1_linear_1602_8606)"/><defs><linearGradient id="brpaint0_linear_1602_8606" x1="20" y1="3" x2="20" y2="37" gradientUnits="userSpaceOnUse"><stop stop-color="#009E55"/><stop offset="1" stop-color="#34BA51"/></linearGradient><linearGradient id="brpaint1_linear_1602_8606" x1="21.962" y1="10.846" x2="21.962" y2="25.231" gradientUnits="userSpaceOnUse"><stop stop-color="#009E55"/><stop offset="1" stop-color="#34BA51"/></linearGradient></defs></svg>