<?xml version="1.0" encoding="utf-8"?><svg width="28" height="17" fill="currentColor" xmlns="http://www.w3.org/2000/svg" viewBox="0 0 28 17"><path fill-rule="evenodd" clip-rule="evenodd" d="M26.013 1.611c.177-.582 0-1.011-.848-1.011h-2.8c-.712 0-1.04.37-1.219.779 0 0-1.424 3.409-3.44 5.623-.654.642-.95.846-1.306.846-.179 0-.446-.204-.446-.787V1.61c0-.7-.197-1.011-.79-1.011h-4.403c-.445 0-.712.324-.712.633 0 .662 1.009.816 1.112 2.68v4.051c0 .889-.163 1.05-.52 1.05-.949 0-3.258-3.425-4.629-7.344C5.747.907 5.478.6 4.762.6H1.96c-.8 0-.96.37-.96.779 0 .727.95 4.341 4.421 9.12 2.315 3.265 5.574 5.034 8.542 5.034 1.78 0 2-.392 2-1.07v-2.467c0-.786.169-.943.733-.943.416 0 1.127.205 2.79 1.778 1.898 1.866 2.21 2.702 3.28 2.702h2.8c.8 0 1.2-.392.97-1.169-.254-.772-1.16-1.893-2.363-3.223-.652-.758-1.632-1.574-1.93-1.982-.414-.524-.296-.757 0-1.224 0 0 3.414-4.72 3.77-6.324h0z" stroke="#009E55"/></svg>