<?xml version="1.0" encoding="utf-8"?><svg width="32" height="32" fill="none" xmlns="http://www.w3.org/2000/svg" viewBox="0 0 32 32"><path d="M21.724 10.38h.02c.194 0 .375.06.523.165l-.003-.002c.108.094.18.226.198.375v.003a2.384 2.384 0 01.022.556v-.009c-.21 2.202-1.116 7.543-1.578 10.008-.195 1.044-.579 1.394-.95 1.427-.808.076-1.422-.533-2.205-1.046-1.225-.805-1.917-1.305-3.106-2.088-1.375-.905-.484-1.404.299-2.216.205-.214 3.767-3.454 3.836-3.748a.287.287 0 00-.065-.246.316.316 0 00-.172-.05.337.337 0 00-.119.023l.002-.001c-.122.028-2.08 1.321-5.871 3.88a2.608 2.608 0 01-1.505.557h-.006a9.796 9.796 0 01-2.232-.533l.069.023c-.872-.285-1.565-.434-1.505-.916.032-.25.377-.507 1.036-.769 4.058-1.768 6.764-2.933 8.118-3.496a21.028 21.028 0 015.047-1.869l.146-.028zM15.967 2C8.25 2.019 2 8.28 2 16c0 7.732 6.267 14 14 14s14-6.267 14-14c0-7.72-6.25-13.981-13.966-14h-.067z" fill="currentColor"/></svg>