<?xml version="1.0" encoding="utf-8"?><svg width="36" height="36" fill="none" xmlns="http://www.w3.org/2000/svg" viewBox="0 0 36 36"><path fill-rule="evenodd" clip-rule="evenodd" d="M22.304 11.74h1.565a1.565 1.565 0 011.565 1.564v12.152a4.67 4.67 0 01-2.594 4.2l-7.66 3.83c-.442.221-.96.221-1.402 0l-7.66-3.83a4.672 4.672 0 01-2.596-4.2V13.304a1.565 1.565 0 011.566-1.565h1.565v-1.565a7.826 7.826 0 1115.651 0v1.565zM12.13 6.107a4.696 4.696 0 00-2.347 4.066v1.565h9.39v-1.565a4.696 4.696 0 00-7.043-4.066zm9.942 20.172c.153-.247.233-.533.232-.824V14.87H6.654v10.587a1.556 1.556 0 00.865 1.4l6.96 3.48 6.96-3.48c.261-.128.48-.328.634-.576zm-8.7-7.822a1.564 1.564 0 012.671 1.107v3.13a1.565 1.565 0 11-3.13 0v-3.13c0-.416.165-.814.458-1.107z" fill="url(#bcpaint0_linear_6450_26008)"/><circle cx="25.044" cy="26.218" r="5.87" fill="#fff"/><path d="M25.044 18.783c-4.097 0-7.435 3.335-7.435 7.431s3.338 7.438 7.435 7.438c4.098 0 7.435-3.342 7.435-7.438s-3.337-7.431-7.435-7.431zm3.612 4.633h.008a.793.793 0 01.463 1.43l-5.2 4.006a.792.792 0 01-1.094-.124l-2.006-2.443a.793.793 0 111.227-1.006l1.515 1.848 4.592-3.538a.791.791 0 01.495-.173z" fill="url(#bcpaint1_linear_6450_26008)"/><defs><linearGradient id="bcpaint0_linear_6450_26008" x1="14.478" y1="2.348" x2="14.478" y2="33.652" gradientUnits="userSpaceOnUse"><stop stop-color="#009E55"/><stop offset="1" stop-color="#34BA51"/></linearGradient><linearGradient id="bcpaint1_linear_6450_26008" x1="25.044" y1="18.783" x2="25.044" y2="33.652" gradientUnits="userSpaceOnUse"><stop stop-color="#009E55"/><stop offset="1" stop-color="#34BA51"/></linearGradient></defs></svg>