<?xml version="1.0" encoding="utf-8"?><svg width="40" height="40" fill="none" xmlns="http://www.w3.org/2000/svg" viewBox="0 0 40 40"><g clip-path="url(#bhclip0_2166_10141)"><path d="M13.502 33.38c-3.395 0-5.928-.937-7.6-2.812-1.647-1.875-2.546-4.332-2.698-7.372-.025-.684-.038-1.85-.038-3.496 0-1.672.013-2.863.038-3.572.127-2.99 1.039-5.421 2.736-7.296 1.697-1.875 4.218-2.812 7.562-2.812 3.344 0 5.865.937 7.562 2.812 1.697 1.875 2.61 4.307 2.736 7.296.05 1.419.076 2.61.076 3.572 0 .963-.025 2.128-.076 3.496-.152 3.04-1.064 5.497-2.736 7.372-1.647 1.875-4.167 2.812-7.562 2.812zm0-4.446c1.57 0 2.749-.507 3.534-1.52.785-1.039 1.203-2.508 1.254-4.408.025-.735.038-1.862.038-3.382s-.013-2.622-.038-3.306c-.05-1.85-.469-3.293-1.254-4.332-.785-1.039-1.963-1.57-3.534-1.596-1.57.025-2.749.557-3.534 1.596-.785 1.039-1.203 2.483-1.254 4.332-.025.684-.038 1.786-.038 3.306s.013 2.647.038 3.382c.05 1.9.469 3.37 1.254 4.408.785 1.013 1.963 1.52 3.534 1.52z" fill="url(#bhpaint0_linear_2166_10141)"/><path d="M29.036 33a.555.555 0 01-.374-.132.555.555 0 01-.132-.374v-2.86h-1.694a.555.555 0 01-.374-.132.555.555 0 01-.132-.374v-.484c0-.147.044-.264.132-.352a.51.51 0 01.374-.154h1.694v-1.254h-1.694a.555.555 0 01-.374-.132.555.555 0 01-.132-.374v-.704c0-.147.044-.264.132-.352a.51.51 0 01.374-.154h1.694v-7.04c0-.161.044-.286.132-.374a.466.466 0 01.374-.154h5.566c1.657 0 2.955.403 3.894 1.21.953.792 1.43 1.95 1.43 3.476 0 1.496-.477 2.64-1.43 3.432-.939.777-2.237 1.166-3.894 1.166h-3.96v1.254h4.312a.44.44 0 01.352.154.44.44 0 01.154.352v.484a.51.51 0 01-.154.374.476.476 0 01-.352.132h-4.312v2.86a.51.51 0 01-.154.374.555.555 0 01-.374.132h-1.078zm5.456-7.832c1.1 0 1.929-.242 2.486-.726.557-.484.836-1.203.836-2.156 0-.924-.279-1.635-.836-2.134-.557-.513-1.386-.77-2.486-.77H30.62v5.786h3.872z" fill="url(#bhpaint1_linear_2166_10141)"/></g><defs><linearGradient id="bhpaint0_linear_2166_10141" x1="14" y1="-9" x2="14" y2="48" gradientUnits="userSpaceOnUse"><stop stop-color="#009E55"/><stop offset="1" stop-color="#34BA51"/></linearGradient><linearGradient id="bhpaint1_linear_2166_10141" x1="33.5" y1="9" x2="33.5" y2="42" gradientUnits="userSpaceOnUse"><stop stop-color="#009E55"/><stop offset="1" stop-color="#34BA51"/></linearGradient><clipPath id="bhclip0_2166_10141"><path fill="#fff" d="M0 0h40v40H0z"/></clipPath></defs></svg>