<?xml version="1.0" encoding="utf-8"?><svg width="26" height="26" fill="none" xmlns="http://www.w3.org/2000/svg" viewBox="0 0 26 26"><path d="M20.027 5.688h-.471v-1.23c0-.675-.533-1.208-1.209-1.208s-1.209.533-1.209 1.209v1.229h-2.97v-1.23c0-.675-.532-1.208-1.208-1.208-.677 0-1.21.533-1.21 1.209v1.229H8.78v-1.23c0-.675-.532-1.208-1.208-1.208-.676 0-1.208.533-1.208 1.209v1.229h-.472A2.649 2.649 0 003.25 8.33v11.738a2.649 2.649 0 002.642 2.642h14.135a2.649 2.649 0 002.642-2.642V8.33a2.649 2.649 0 00-2.642-2.642zm0 15.26H5.892a.874.874 0 01-.88-.88v-8.952h15.895v8.952c0 .492-.389.881-.88.881z" fill="#009E55"/></svg>